<svg width="228" height="228" viewBox="0 0 228 228" fill="none" xmlns="http://www.w3.org/2000/svg">
<path fill-rule="evenodd" clip-rule="evenodd" d="M114 0C176.919 0 228 51.0812 228 114C228 176.919 176.919 228 114 228C51.0812 228 0 176.919 0 114C0 51.0812 51.0812 0 114 0Z" fill="white"/>
<path fill-rule="evenodd" clip-rule="evenodd" d="M114 6C173.607 6 222 54.3926 222 114C222 173.607 173.607 222 114 222C54.3926 222 6 173.607 6 114C6 54.3926 54.3926 6 114 6ZM114 9.375C56.2556 9.375 9.375 56.2556 9.375 114C9.375 171.744 56.2556 218.625 114 218.625C171.744 218.625 218.625 171.744 218.625 114C218.625 56.2556 171.744 9.375 114 9.375Z" fill="#A72347"/>
<path fill-rule="evenodd" clip-rule="evenodd" d="M114 9C171.951 9 219 56.0487 219 114C219 171.951 171.951 219 114 219C56.0487 219 9 171.951 9 114C9 56.0487 56.0487 9 114 9Z" fill="#D92958"/>
<path d="M114 205C164.258 205 205 164.258 205 114C205 63.7421 164.258 23 114 23C63.7421 23 23 63.7421 23 114C23 164.258 63.7421 205 114 205Z" fill="url(#paint0_linear_461_265)"/>
<path fill-rule="evenodd" clip-rule="evenodd" d="M114.5 18C167.76 18 211 61.2398 211 114.5C211 167.76 167.76 211 114.5 211C61.2398 211 18 167.76 18 114.5C18 61.2398 61.2398 18 114.5 18ZM114.5 24.8485C65.0195 24.8485 24.8485 65.0195 24.8485 114.5C24.8485 163.98 65.0195 204.152 114.5 204.152C163.98 204.152 204.152 163.98 204.152 114.5C204.152 65.0195 163.98 24.8485 114.5 24.8485Z" fill="white"/>
<path fill-rule="evenodd" clip-rule="evenodd" d="M46.9721 55.4737H67.0977V65.8502H46.649V73.7889H66.1597V84.1654H46.649V99.9802H34.1421V74.5598C37.5964 67.6406 41.9217 61.232 46.9721 55.4737ZM189.524 65.8502H173.49V72.2261H192.686V82.3526H173.49V89.6037H195V99.9802H160.983V55.4737H181.673C184.531 58.7316 187.156 62.1994 189.524 65.8502ZM181.233 174H179.167V153.281H171.021V146.782H195V153.281H186.815V167.069C185.069 169.473 183.205 171.785 181.233 174ZM34.1421 154.417V146.782H39.6868L48.6158 159.848L57.5091 146.782H63.0553V174H55.4827V161.217L51.0457 167.578H46.1502L41.7147 161.172V166.911C38.8664 162.975 36.3293 158.798 34.1421 154.417ZM74.8907 169.413L73.3437 174H65.5418L75.9061 146.782H83.708L93.9562 174H86.0025L84.4927 169.413H74.8907ZM82.5303 163.449L79.7505 155.005L76.9022 163.449H82.5303ZM81.229 92.4791L78.6993 99.9802H65.9423L82.8891 55.4737H95.6462L112.405 99.9802H99.3982L96.9296 92.4791H81.229ZM93.721 82.7277L89.1768 68.9191L84.5195 82.7277H93.721ZM128.481 78.3729V99.9802H115.974V55.4737H128.481V75.2608L142.239 55.4737H157.31L141.618 76.6554L157.997 99.9802H142.989L128.481 78.3729ZM111.921 128.599V140.839H102.126V105.978H118.288C120.542 105.978 122.566 106.435 124.363 107.349C126.191 108.231 127.628 109.52 128.673 111.217C129.75 112.882 130.289 114.907 130.289 117.289C130.289 119.639 129.75 121.662 128.673 123.36C127.628 125.057 126.191 126.362 124.363 127.276C122.566 128.158 120.542 128.599 118.288 128.599H111.921ZM111.921 113.03V121.549H116.378C117.13 121.549 117.815 121.402 118.435 121.107C119.089 120.781 119.612 120.308 120.003 119.687C120.395 119.035 120.591 118.236 120.591 117.289C120.591 116.343 120.395 115.558 120.003 114.938C119.612 114.286 119.089 113.813 118.435 113.518C117.815 113.192 117.13 113.03 116.378 113.03H111.921ZM160.436 140.839H133.791V105.978H160.141V114.106H143.586V119.101H158.624V127.032H143.586V132.711H160.436V140.839ZM174.868 126.934V140.839H165.073V105.978H180.502C182.917 105.978 185.041 106.419 186.869 107.301C188.697 108.182 190.134 109.406 191.179 110.973C192.225 112.54 192.747 114.368 192.747 116.456C192.747 118.545 192.208 120.373 191.13 121.94C190.085 123.506 188.615 124.731 186.722 125.612C186.116 125.895 185.474 126.131 184.796 126.323L195 140.839H183.881L175.004 126.934H174.868ZM174.868 113.03V120.177H178.935C180.273 120.177 181.286 119.851 181.97 119.199C182.69 118.545 183.048 117.681 183.048 116.603C183.048 115.526 182.69 114.661 181.97 114.008C181.286 113.356 180.273 113.03 178.935 113.03H174.868ZM48.0039 141.427C45.032 141.427 42.4368 141.003 40.2154 140.153C38.0282 139.272 36.0032 137.885 34.1421 135.991L40.2645 129.872C41.5375 131.079 42.8776 132.01 44.2816 132.662C45.6856 133.283 47.188 133.592 48.7871 133.592C50.1256 133.592 51.138 133.397 51.8244 133.004C52.5093 132.58 52.8533 132.01 52.8533 131.291C52.8533 130.574 52.5585 129.986 51.9703 129.529C51.3837 129.04 50.5991 128.615 49.6194 128.255C48.6724 127.864 47.6123 127.472 46.4361 127.081C45.2941 126.689 44.1506 126.216 43.0071 125.661C41.8651 125.106 40.8035 124.436 39.8238 123.653C38.8768 122.838 38.11 121.842 37.5219 120.666C36.9338 119.459 36.6405 117.99 36.6405 116.261C36.6405 114.008 37.1795 112.067 38.256 110.434C39.3339 108.801 40.8526 107.562 42.812 106.713C44.7714 105.832 47.0733 105.392 49.7176 105.392C52.3307 105.392 54.7472 105.816 56.9671 106.664C59.2199 107.48 61.081 108.656 62.5506 110.189L56.379 116.31C55.3011 115.265 54.2246 114.497 53.1466 114.008C52.0686 113.487 50.8939 113.225 49.6194 113.225C48.6084 113.225 47.791 113.388 47.1716 113.714C46.5835 114.04 46.2887 114.53 46.2887 115.183C46.2887 115.869 46.5835 116.439 47.1716 116.896C47.7582 117.321 48.5265 117.713 49.4734 118.072C50.4531 118.431 51.5133 118.806 52.6567 119.199C53.833 119.59 54.9914 120.064 56.1348 120.619C57.2768 121.14 58.3221 121.826 59.269 122.674C60.2487 123.49 61.0319 124.518 61.62 125.759C62.2081 126.999 62.5014 128.501 62.5014 130.263C62.5014 133.821 61.2284 136.579 58.6809 138.538C56.1676 140.464 52.6076 141.427 48.0039 141.427ZM81.8052 141.427C78.7351 141.427 76.058 140.806 73.7725 139.566C71.4855 138.292 69.7063 136.547 68.4333 134.328C67.1588 132.107 66.523 129.562 66.523 126.689V105.978H76.3186V127.571C76.3186 128.681 76.5642 129.627 77.0541 130.41C77.5439 131.193 78.1961 131.797 79.0135 132.222C79.8622 132.613 80.7928 132.809 81.8052 132.809C82.8489 132.809 83.7646 132.613 84.5478 132.222C85.3637 131.797 86.001 131.209 86.4581 130.459C86.9152 129.675 87.143 128.728 87.143 127.62V105.978H96.9892V126.739C96.9892 129.611 96.3519 132.156 95.0789 134.377C93.8371 136.563 92.0743 138.292 89.7888 139.566C87.536 140.806 84.8739 141.427 81.8052 141.427ZM103.789 163.144V174H96.139V146.782H108.186C110.074 146.782 111.731 147.126 113.159 147.813C114.587 148.502 115.708 149.458 116.524 150.681C117.34 151.905 117.748 153.332 117.748 154.963C117.748 156.594 117.326 158.021 116.485 159.245C115.669 160.468 114.523 161.424 113.044 162.111C112.569 162.332 112.069 162.516 111.54 162.666L119.506 174H110.826L103.895 163.144H103.789ZM103.789 152.287V157.868H106.962C108.009 157.868 108.798 157.614 109.334 157.103C109.895 156.594 110.175 155.918 110.175 155.078C110.175 154.237 109.895 153.561 109.334 153.05C108.798 152.541 108.009 152.287 106.962 152.287H103.789ZM169.754 174H148.949V146.782H169.525V153.128H156.598V157.027H168.339V163.22H156.598V167.654H169.754V174ZM129.074 160.785V174H121.424V146.782H129.074V158.883L137.488 146.782H146.704L137.106 159.736L147.124 174H137.946L129.074 160.785Z" fill="#280B0E"/>
<defs>
<linearGradient id="paint0_linear_461_265" x1="48" y1="55.5" x2="114" y2="205" gradientUnits="userSpaceOnUse">
<stop stop-color="#FEF6F6"/>
<stop offset="1" stop-color="#F2E4E4"/>
</linearGradient>
</defs>
</svg>
