<svg viewBox="0 0 216 216" fill="none" xmlns="http://www.w3.org/2000/svg">
<path fill-rule="evenodd" clip-rule="evenodd" d="M108 0C167.607 0 216 48.3926 216 108C216 167.607 167.607 216 108 216C48.3926 216 0 167.607 0 108C0 48.3926 48.3926 0 108 0ZM108 3.375C50.2556 3.375 3.375 50.2556 3.375 108C3.375 165.744 50.2556 212.625 108 212.625C165.744 212.625 212.625 165.744 212.625 108C212.625 50.2556 165.744 3.375 108 3.375Z" fill="#A72347"/>
<path d="M108 199C158.258 199 199 158.258 199 108C199 57.7421 158.258 17 108 17C57.7421 17 17 57.7421 17 108C17 158.258 57.7421 199 108 199Z" fill="url(#paint0_linear_1018_82)"/>
<path d="M150.088 163C141.285 163 133.594 161.742 127.016 159.227C120.535 156.615 114.537 152.504 109.023 146.894L127.161 128.756C130.934 132.335 134.9 135.092 139.06 137.026C143.219 138.864 147.669 139.783 152.409 139.783C156.375 139.783 159.374 139.203 161.406 138.042C163.437 136.785 164.453 135.092 164.453 132.964C164.453 130.835 163.582 129.094 161.841 127.74C160.1 126.289 157.778 125.031 154.876 123.967C152.071 122.806 148.927 121.646 145.444 120.485C142.059 119.324 138.673 117.921 135.287 116.277C131.901 114.632 128.757 112.649 125.855 110.327C123.05 107.909 120.777 104.959 119.035 101.476C117.294 97.8969 116.424 93.5438 116.424 88.4168C116.424 81.742 118.02 75.9862 121.212 71.1494C124.404 66.3126 128.903 62.6367 134.707 60.1216C140.511 57.5097 147.331 56.2038 155.166 56.2038C162.905 56.2038 170.064 57.4613 176.642 59.9765C183.316 62.3948 188.83 65.8773 193.183 70.4239L174.9 88.5619C171.708 85.4663 168.516 83.193 165.324 81.742C162.131 80.1942 158.649 79.4203 154.876 79.4203C151.877 79.4203 149.459 79.904 147.621 80.8714C145.88 81.8387 145.009 83.2898 145.009 85.2245C145.009 87.2559 145.88 88.9488 147.621 90.3031C149.362 91.5607 151.635 92.7215 154.441 93.7856C157.343 94.8497 160.487 95.9622 163.872 97.123C167.355 98.2838 170.789 99.6865 174.175 101.331C177.561 102.879 180.656 104.91 183.461 107.425C186.364 109.844 188.685 112.891 190.426 116.567C192.168 120.243 193.038 124.693 193.038 129.916C193.038 140.461 189.266 148.635 181.72 154.439C174.272 160.146 163.727 163 150.088 163Z" fill="black"/>
<path d="M29 161.259V57.945H58.0207V161.259H29ZM52.5068 124.548V100.46H103.293V124.548H52.5068ZM52.5068 82.0322V57.945H105.47V82.0322H52.5068Z" fill="black"/>
<path fill-rule="evenodd" clip-rule="evenodd" d="M108.5 12C161.76 12 205 55.2398 205 108.5C205 161.76 161.76 205 108.5 205C55.2398 205 12 161.76 12 108.5C12 55.2398 55.2398 12 108.5 12ZM108.5 18.8485C59.0195 18.8485 18.8485 59.0195 18.8485 108.5C18.8485 157.98 59.0195 198.152 108.5 198.152C157.98 198.152 198.152 157.98 198.152 108.5C198.152 59.0195 157.98 18.8485 108.5 18.8485Z" fill="white"/>
<path d="M108 8C163.19 8 208 52.8101 208 108C208 163.19 163.19 208 108 208C52.8101 208 8 163.19 8 108C8 52.8101 52.8101 8 108 8Z" stroke="#D92958" stroke-width="10"/>
<defs>
<linearGradient id="paint0_linear_1018_82" x1="42" y1="49.5" x2="108" y2="199" gradientUnits="userSpaceOnUse">
<stop stop-color="#FEF6F6"/>
<stop offset="1" stop-color="#F2E4E4"/>
</linearGradient>
</defs>
</svg>
