<?xml version="1.0" encoding="UTF-8" standalone="no"?>
<!DOCTYPE svg PUBLIC "-//W3C//DTD SVG 1.1//EN" "http://www.w3.org/Graphics/SVG/1.1/DTD/svg11.dtd">
<svg width="100%" height="100%" viewBox="0 0 89 104" version="1.1" xmlns="http://www.w3.org/2000/svg" xmlns:xlink="http://www.w3.org/1999/xlink" xml:space="preserve" xmlns:serif="http://www.serif.com/" style="fill-rule:evenodd;clip-rule:evenodd;stroke-linejoin:round;stroke-miterlimit:2;">
    <g transform="matrix(1,0,0,1,-0.587143,-0.03452)">
        <g transform="matrix(1.079108,0,0,1.079108,-3.202685,-4.438511)">
            <path d="M55.863,17.954C57.507,17.954 58.841,19.288 58.841,20.932C58.841,22.578 57.507,23.912 55.863,23.912C54.218,23.912 52.884,22.578 52.884,20.932C52.884,19.288 54.218,17.954 55.863,17.954ZM33.473,17.954C35.118,17.954 36.452,19.288 36.452,20.932C36.452,22.578 35.118,23.912 33.473,23.912C31.829,23.912 30.495,22.578 30.495,20.932C30.495,19.288 31.829,17.954 33.473,17.954ZM80.009,34.865C83.209,34.865 85.826,37.482 85.826,40.68L85.826,63.942C85.826,67.141 83.209,69.758 80.009,69.758C76.81,69.758 74.193,67.141 74.193,63.942L74.193,40.68C74.193,37.482 76.81,34.865 80.009,34.865ZM9.328,34.865C12.526,34.865 15.143,37.482 15.143,40.68L15.143,63.942C15.143,67.141 12.526,69.758 9.328,69.758C6.129,69.758 3.512,67.141 3.512,63.942L3.512,40.68C3.512,37.482 6.129,34.865 9.328,34.865ZM39.948,81.746L39.948,94.673C39.948,97.872 37.331,100.489 34.132,100.489C30.933,100.489 28.316,97.872 28.316,94.673L28.316,81.746L23.438,81.746C20.848,81.746 18.73,79.627 18.73,77.038L18.73,34.665L70.607,34.665L70.607,77.038C70.607,79.627 68.488,81.746 65.898,81.746L61.019,81.746L61.019,94.673C61.019,97.872 58.404,100.489 55.205,100.489C52.006,100.489 49.39,97.872 49.39,94.673L49.39,81.746L39.948,81.746ZM44.668,10.08C48.584,10.08 52.293,10.8 55.621,12.088L60.519,4.544C60.781,4.138 61.324,4.023 61.729,4.287C62.134,4.55 62.25,5.093 61.986,5.497L57.256,12.781C65.082,16.392 70.412,23.264 70.564,31.178L18.772,31.178C18.925,23.264 24.255,16.392 32.081,12.781L27.351,5.497C27.087,5.093 27.202,4.55 27.608,4.287C28.013,4.023 28.555,4.138 28.818,4.544L33.717,12.088C37.043,10.801 40.753,10.08 44.668,10.08Z" style="fill:rgb(179,201,56);"/>
        </g>
    </g>
</svg>
