<svg width="46" height="32" viewBox="0 0 46 32" fill="none" xmlns="http://www.w3.org/2000/svg">
<rect x="0.5" y="0.5" width="45" height="31" rx="3.5" fill="white"/>
<rect x="0.5" y="0.5" width="45" height="31" rx="3.5" stroke="#F2F4F7"/>
<path d="M35.6149 18.8403H35.6383L37.5289 14.0952H38.8571L34.7731 23.6079H33.5123L35.0309 20.2798L32.3512 14.0952H33.6793L35.6149 18.8403ZM29.2223 13.8794C30.1257 13.8794 30.84 14.1257 31.3639 14.6108C31.8877 15.0961 32.1461 15.7744 32.1461 16.6294V20.7036H30.9762V19.7876H30.9235C30.4148 20.5423 29.7466 20.9194 28.9039 20.9194C28.1903 20.9194 27.5824 20.7043 27.1041 20.273C26.6335 19.8724 26.3682 19.2787 26.3834 18.6548C26.3835 17.9694 26.6414 17.4302 27.15 17.022C27.6586 16.6138 28.3419 16.4136 29.192 16.4136C29.9208 16.4136 30.5133 16.5521 30.984 16.814V16.5288C30.9839 16.1053 30.8018 15.7045 30.483 15.4273C30.1566 15.1347 29.7389 14.9732 29.3063 14.9732C28.623 14.9732 28.0839 15.2658 27.6891 15.8511L26.611 15.1655C27.1879 14.3108 28.061 13.8795 29.2223 13.8794ZM23.4303 11.0454C24.212 11.0301 24.9709 11.33 25.525 11.8843C26.6335 12.9318 26.7019 14.6964 25.6617 15.8286L25.525 15.9673C24.9558 16.5139 24.2575 16.7914 23.4303 16.7915H21.4108V20.7036H20.1881V11.0454H23.4303ZM29.3824 17.4146C28.889 17.4146 28.4714 17.5381 28.1373 17.7769C27.8108 18.0156 27.6442 18.3162 27.6442 18.6782C27.6442 19.0017 27.7959 19.302 28.0465 19.4868C28.3198 19.7024 28.6541 19.8178 28.9957 19.8101C29.5119 19.81 30.0054 19.6025 30.3698 19.2329C30.7721 18.8479 30.9771 18.3933 30.9772 17.8696C30.5975 17.5615 30.0658 17.4069 29.3824 17.4146ZM21.4108 15.605H23.4606C23.9162 15.6204 24.3573 15.4352 24.6686 15.104C25.3061 14.4339 25.2909 13.3554 24.6305 12.7085C24.3192 12.4004 23.901 12.231 23.4606 12.231H21.4108V15.605Z" fill="#3C4043"/>
<path d="M17.1905 15.9438C17.1905 15.5664 17.1602 15.189 17.0994 14.8193H11.9444V16.9529H14.8977C14.7763 17.6384 14.3815 18.2546 13.8045 18.6397V20.0262H15.5658C16.5984 19.0634 17.1905 17.6384 17.1905 15.9438Z" fill="#4285F4"/>
<path d="M11.9446 21.3664C13.4175 21.3664 14.6626 20.8734 15.566 20.0262L13.8047 18.6397C13.3112 18.9786 12.681 19.1712 11.9446 19.1712C10.5173 19.1712 9.31013 18.193 8.87738 16.8835H7.06287V18.3162C7.9891 20.1879 9.87954 21.3664 11.9446 21.3664Z" fill="#34A853"/>
<path d="M8.87759 16.8836C8.64979 16.198 8.64979 15.4509 8.87759 14.7577V13.3327H7.06278C6.28067 14.8963 6.28067 16.7449 7.06278 18.3085L8.87759 16.8836Z" fill="#FBBC04"/>
<path d="M11.9446 12.47C12.7266 12.4546 13.4782 12.755 14.04 13.3019L15.604 11.7152C14.6094 10.7755 13.3036 10.2594 11.9446 10.2748C9.87954 10.2748 7.9891 11.461 7.06287 13.3327L8.87738 14.7654C9.31013 13.4482 10.5173 12.47 11.9446 12.47Z" fill="#EA4335"/>
</svg>
