<svg id="Layer_1" data-name="Layer 1" xmlns="http://www.w3.org/2000/svg" viewBox="0 0 100 100"><defs><style>.cls-1{fill:#231f20;}.cls-2{fill:#fff;}</style></defs><title>HSR-0.5</title><g id="_Group_" data-name="&lt;Group&gt;"><path class="cls-1" d="M50.07,99.26A49.33,49.33,0,1,1,99.39,49.94,49.38,49.38,0,0,1,50.07,99.26Zm0-98A48.68,48.68,0,1,0,98.75,49.94,48.74,48.74,0,0,0,50.07,1.25Z"/></g><g id="_Group_2" data-name="&lt;Group&gt;"><path class="cls-1" d="M38,62.07a17.26,17.26,0,0,1-3.73-5.49,17,17,0,0,1-1.35-6.64H6.25A43.8,43.8,0,0,0,9.34,66.1H43.46l.13-.33A17.26,17.26,0,0,1,38,62.07"/></g><g id="_Group_3" data-name="&lt;Group&gt;"><path class="cls-1" d="M50.07,7.07A42.85,42.85,0,0,1,90.14,65.14H59.84a18.09,18.09,0,1,0-19.52,0H10A42.87,42.87,0,0,1,50.07,7.07m0-1a43.82,43.82,0,0,0-40.73,60H44.45a17.11,17.11,0,1,1,11.25,0H90.8a43.81,43.81,0,0,0-40.73-60"/></g><g id="_Group_4" data-name="&lt;Group&gt;"><polygon class="cls-2" points="16.87 39.36 21.61 45.93 29.32 43.46 24.53 49.99 29.26 56.56 21.57 54.03 16.79 60.56 16.82 52.46 9.13 49.93 16.84 47.45 16.87 39.36"/></g><g id="_Group_5" data-name="&lt;Group&gt;"><path class="cls-1" d="M16.79,60.79h-.07a.24.24,0,0,1-.16-.23l0-7.93L9.06,50.15a.24.24,0,0,1,0-.45l7.54-2.42,0-7.92a.24.24,0,0,1,.43-.14l4.64,6.44,7.54-2.42a.24.24,0,0,1,.27.37L24.82,50l4.63,6.42a.24.24,0,0,1-.27.37l-7.52-2.47L17,60.7A.24.24,0,0,1,16.79,60.79ZM9.9,49.93l7,2.3a.24.24,0,0,1,.16.23l0,7.37,4.35-5.94a.24.24,0,0,1,.27-.09l7,2.3-4.3-6a.24.24,0,0,1,0-.28l4.35-5.94-7,2.25a.24.24,0,0,1-.27-.09l-4.31-6,0,7.36a.24.24,0,0,1-.17.23Zm6.94-2.47h0Z"/></g><g id="_Group_6" data-name="&lt;Group&gt;"><polygon class="cls-2" points="83.27 60.37 78.53 53.8 70.83 56.26 75.62 49.74 70.88 43.17 78.57 45.7 83.35 39.17 83.32 47.27 91.01 49.8 83.3 52.27 83.27 60.37"/></g><g id="_Group_7" data-name="&lt;Group&gt;"><path class="cls-1" d="M83.27,60.61a.24.24,0,0,1-.19-.1l-4.64-6.43L70.9,56.49a.25.25,0,0,1-.27-.09.24.24,0,0,1,0-.28l4.69-6.38-4.63-6.43a.24.24,0,0,1,.27-.37l7.52,2.48L83.16,39a.24.24,0,0,1,.43.14l0,7.92,7.53,2.48a.24.24,0,0,1,0,.45l-7.55,2.41,0,7.92a.24.24,0,0,1-.17.23Zm-4.74-7a.24.24,0,0,1,.19.1l4.31,6,0-7.36a.24.24,0,0,1,.17-.23l7-2.24-7-2.31a.24.24,0,0,1-.16-.23l0-7.36-4.35,5.94a.24.24,0,0,1-.27.09l-7-2.3,4.31,6a.24.24,0,0,1,0,.28l-4.35,5.93,7-2.24Z"/></g><g id="_Group_8" data-name="&lt;Group&gt;"><polygon class="cls-2" points="80.97 33.81 72.98 32.51 69.28 39.71 68.05 31.71 60.06 30.42 67.29 26.76 66.05 18.77 71.76 24.51 78.98 20.87 75.27 28.06 80.97 33.81"/></g><g id="_Group_9" data-name="&lt;Group&gt;"><path class="cls-1" d="M69.28,39.95h0a.24.24,0,0,1-.2-.2l-1.2-7.83L60,30.65a.24.24,0,0,1-.07-.45L67,26.63,65.81,18.8a.24.24,0,0,1,.4-.2l5.59,5.63,7.07-3.57a.24.24,0,0,1,.32.32l-3.63,7,5.58,5.62a.24.24,0,0,1,0,.28.24.24,0,0,1-.25.13l-7.82-1.27-3.63,7A.24.24,0,0,1,69.28,39.95ZM60.82,30.3l7.26,1.18a.24.24,0,0,1,.2.2l1.12,7.27,3.37-6.54a.24.24,0,0,1,.25-.13l7.27,1.18L75.1,28.23a.24.24,0,0,1,0-.28l3.37-6.54-6.57,3.32a.24.24,0,0,1-.28,0l-5.19-5.23,1.13,7.27a.24.24,0,0,1-.13.25Z"/></g><g id="_Group_10" data-name="&lt;Group&gt;"><polygon class="cls-2" points="60.58 16.66 54.01 21.39 56.47 29.1 49.95 24.32 43.38 29.05 45.91 21.36 39.38 16.58 47.48 16.61 50.01 8.92 52.48 16.63 60.58 16.66"/></g><g id="_Group_11" data-name="&lt;Group&gt;"><path class="cls-1" d="M56.47,29.34a.24.24,0,0,1-.14,0l-6.38-4.68-6.43,4.63a.24.24,0,0,1-.28,0,.24.24,0,0,1-.09-.27l2.48-7.53-6.4-4.68a.24.24,0,0,1,.14-.43h0l7.93,0,2.47-7.52A.26.26,0,0,1,50,8.68a.24.24,0,0,1,.23.17l2.42,7.55,7.92,0a.24.24,0,0,1,.14.43l-6.43,4.64L56.7,29a.24.24,0,0,1-.23.31ZM50,24.08a.24.24,0,0,1,.14,0L56,28.48l-2.24-7a.24.24,0,0,1,.09-.27l6-4.31-7.36,0a.24.24,0,0,1-.23-.17L50,9.69l-2.3,7a.24.24,0,0,1-.23.16h0l-7.37,0,5.94,4.35a.24.24,0,0,1,.09.27l-2.3,7,6-4.3A.24.24,0,0,1,50,24.08Z"/></g><g id="_Group_12" data-name="&lt;Group&gt;"><polygon class="cls-2" points="34.02 18.95 32.72 26.95 39.92 30.66 31.92 31.88 30.63 39.88 26.98 32.65 18.98 33.88 24.72 28.18 21.08 20.96 28.27 24.66 34.02 18.95"/></g><g id="_Group_13" data-name="&lt;Group&gt;"><path class="cls-1" d="M30.63,40.12a.24.24,0,0,1-.21-.13l-3.57-7.08L19,34.12a.24.24,0,0,1-.2-.41l5.62-5.58-3.57-7.07a.24.24,0,0,1,.32-.32l7,3.63,5.63-5.59a.24.24,0,0,1,.4.21L33,26.82l7,3.63a.24.24,0,0,1-.07.45l-7.83,1.2-1.27,7.83a.24.24,0,0,1-.2.2ZM27,32.41a.24.24,0,0,1,.21.13l3.32,6.58,1.18-7.27a.24.24,0,0,1,.2-.2l7.27-1.11-6.54-3.37a.24.24,0,0,1-.13-.25l1.18-7.27-5.23,5.19a.24.24,0,0,1-.28,0L21.62,21.5l3.31,6.57a.24.24,0,0,1,0,.28l-5.22,5.18,7.27-1.12Z"/></g><path class="cls-1" d="M47.93,49.64c0,3.32,0,10.89-5.06,10.89s-5.21-7-5.21-10.89c0-4.33.17-10.89,5.13-10.89S47.93,45,47.93,49.64ZM42.8,57.12c1,0,1.46-1,1.65-2.29a30.06,30.06,0,0,0,.2-4.75,34.37,34.37,0,0,0-.3-6.14c-.12-.71-.49-1.78-1.56-1.78s-1.43,1.19-1.51,1.54A24.61,24.61,0,0,0,40.94,49C40.94,53.88,40.92,57.12,42.8,57.12Z"/><path class="cls-1" d="M52.18,56.17v4H49v-4Z"/><path class="cls-1" d="M61.77,43.37v2.89H57.38l-.43,3.12a3.06,3.06,0,0,1,1.71-.54c1.89,0,3.82,1.89,3.82,5.54,0,3.41-1.54,6.08-4.49,6.08-2.36,0-3.82-1.68-4.19-4.57l2.58-.31c.16,1.23.75,2.2,1.69,2.2.77,0,1.79-.57,1.79-3.29S58.5,51.34,58,51.34a2.13,2.13,0,0,0-1.75,1.28l-2.09-.38,1.32-8.88Z"/><g id="_Group_14" data-name="&lt;Group&gt;"><path class="cls-1" d="M21.56,70v3.56H23.7V70h1.44v8.61H23.7V74.84H21.56v3.79H20.12V70Z"/><path class="cls-1" d="M30.43,74.72H28.29v2.73h2.44v1.19H26.85V70h3.71v1.19H28.29v2.36h2.15Z"/><path class="cls-1" d="M33.3,76.4l-.48,2.24H31.43l2-8.61h1.68L37,78.64h-1.4L35.1,76.4ZM35,75.33l-.38-2c-.12-.56-.24-1.35-.34-2h0c-.09.6-.23,1.43-.34,2l-.4,2Z"/></g><g id="_Group_15" data-name="&lt;Group&gt;"><path class="cls-1" d="M38.17,70h1.44v7.46H42v1.15H38.17Z"/></g><g id="_Group_16" data-name="&lt;Group&gt;"><path class="cls-1" d="M44.18,71.28H42.56V70h4.68v1.25H45.61v7.36H44.18Z"/><path class="cls-1" d="M49.78,70v3.56h2.15V70h1.44v8.61H51.93V74.84H49.78v3.79H48.35V70Z"/><path class="cls-1" d="M57.13,77.18a3.2,3.2,0,0,0,1.4.34c.88,0,1.37-.49,1.37-1.2s-.44-1.09-1.18-1.57a3,3,0,0,1-1.7-2.4A2.39,2.39,0,0,1,59.65,70a2.94,2.94,0,0,1,1.34.31l-.25,1.17a2.15,2.15,0,0,0-1.11-.29,1.08,1.08,0,0,0-1.21,1c0,.66.36,1,1.29,1.53a2.86,2.86,0,0,1,1.6,2.46,2.52,2.52,0,0,1-2.78,2.53,3.6,3.6,0,0,1-1.64-.36Z"/><path class="cls-1" d="M63.54,71.28H61.92V70H66.6v1.25H65v7.36H63.54Z"/><path class="cls-1" d="M69,76.4l-.48,2.24h-1.4l2-8.61H70.8l1.86,8.61H71.27l-.48-2.24Zm1.65-1.07-.37-2c-.12-.56-.24-1.35-.33-2h0c-.09.6-.23,1.43-.33,2l-.4,2Z"/></g><g id="_Group_17" data-name="&lt;Group&gt;"><path class="cls-1" d="M73.86,70.16A8,8,0,0,1,75.58,70a3.26,3.26,0,0,1,2.24.63,2.18,2.18,0,0,1,.68,1.75,2.26,2.26,0,0,1-1.42,2.17v0c.64.22,1,.79,1.15,1.81a12.25,12.25,0,0,0,.55,2.26H77.3a11.52,11.52,0,0,1-.46-2.09c-.17-1.12-.51-1.48-1.23-1.48h-.32v3.58H73.86ZM75.29,74h.38a1.38,1.38,0,0,0,1.39-1.52c0-.84-.36-1.42-1.29-1.43a1.75,1.75,0,0,0-.48.05Z"/></g><g id="_Group_18" data-name="&lt;Group&gt;"><path class="cls-1" d="M33.26,81.77A8,8,0,0,1,35,81.6a3.26,3.26,0,0,1,2.24.63A2.18,2.18,0,0,1,37.9,84a2.26,2.26,0,0,1-1.42,2.17v0c.64.22,1,.79,1.15,1.81a12.28,12.28,0,0,0,.55,2.26H36.7a11.52,11.52,0,0,1-.46-2.09c-.17-1.12-.51-1.48-1.23-1.48h-.32v3.58H33.26Zm1.42,3.86h.38a1.39,1.39,0,0,0,1.4-1.52c0-.84-.36-1.42-1.29-1.43a1.75,1.75,0,0,0-.48.05Z"/></g><g id="_Group_19" data-name="&lt;Group&gt;"><path class="cls-1" d="M40.61,88l-.48,2.24H38.74l2-8.61h1.68l1.86,8.61h-1.4L42.41,88Zm1.65-1.07-.38-2c-.12-.56-.24-1.35-.34-2h0c-.09.6-.23,1.43-.34,2l-.4,2Z"/></g><g id="_Group_20" data-name="&lt;Group&gt;"><path class="cls-1" d="M46.47,82.89H44.85V81.64h4.68v1.25H47.91v7.36H46.47Z"/></g><g id="_Group_21" data-name="&lt;Group&gt;"><path class="cls-1" d="M52.08,81.64v8.61H50.64V81.64Z"/></g><g id="_Group_22" data-name="&lt;Group&gt;"><path class="cls-1" d="M53.79,90.25V81.64h1.31l1.53,3.68c.32.78.78,1.89,1.06,2.72h0c-.08-1.1-.16-2.43-.16-4V81.64h1.26v8.61H57.51L56,86.58a24.68,24.68,0,0,1-1-2.73h0c.07,1,.11,2.21.11,4v2.4Z"/></g><g id="_Group_23" data-name="&lt;Group&gt;"><path class="cls-1" d="M65.3,90a5.5,5.5,0,0,1-1.76.31,3.07,3.07,0,0,1-2.29-.84A4.81,4.81,0,0,1,60.12,86c0-3.23,1.88-4.46,3.65-4.46a3.3,3.3,0,0,1,1.4.25L64.88,83a2.2,2.2,0,0,0-1-.21c-1.17,0-2.24.82-2.24,3.24s.94,3.13,1.89,3.13A1.19,1.19,0,0,0,64,89.1V86.68H63V85.56H65.3Z"/></g></svg>