<svg id="Layer_1" data-name="Layer 1" xmlns="http://www.w3.org/2000/svg" viewBox="0 0 100 100"><defs><style>.cls-1{fill:#231f20;}.cls-2{fill:#fff;}</style></defs><title>HSR-4</title><g id="_Group_" data-name="&lt;Group&gt;"><path class="cls-1" d="M49.83,99.36A49.33,49.33,0,1,1,99.15,50,49.38,49.38,0,0,1,49.83,99.36Zm0-98A48.68,48.68,0,1,0,98.51,50,48.74,48.74,0,0,0,49.83,1.35Z"/></g><g id="_Group_2" data-name="&lt;Group&gt;"><path class="cls-1" d="M80.72,19h0A43.46,43.46,0,0,0,66.42,9.5v0a43.67,43.67,0,0,0-16.6-3.26h-.08A43.62,43.62,0,0,0,32.94,9.6h0a43.78,43.78,0,0,0-14.11,9.47h0A43.88,43.88,0,0,0,9.3,33.37h0A43.63,43.63,0,0,0,6,50H6A43.8,43.8,0,0,0,9.1,66.2H43.22l.13-.33a17.23,17.23,0,0,1-9.31-9.18A17,17,0,0,1,32.71,50h0A17,17,0,0,1,34,43.53h0a17.11,17.11,0,0,1,3.72-5.59h0a17.2,17.2,0,0,1,5.51-3.7h0a17,17,0,0,1,6.57-1.32h0a17,17,0,0,1,6.48,1.29h0a17.05,17.05,0,0,1,5.58,3.7h0a17.15,17.15,0,0,1,3.72,5.5L90.23,33A43.81,43.81,0,0,0,80.72,19Z"/></g><g id="_Group_3" data-name="&lt;Group&gt;"><path class="cls-1" d="M49.83,7.17A42.85,42.85,0,0,1,89.9,65.24H59.6a18.09,18.09,0,1,0-19.52,0H9.75A42.87,42.87,0,0,1,49.83,7.17m0-1A43.82,43.82,0,0,0,9.1,66.2H44.21a17.11,17.11,0,1,1,11.25,0h35.1a43.81,43.81,0,0,0-40.73-60"/></g><g id="_Group_4" data-name="&lt;Group&gt;"><polygon class="cls-2" points="16.63 39.46 21.37 46.03 29.08 43.56 24.29 50.09 29.02 56.66 21.33 54.13 16.55 60.66 16.58 52.56 8.89 50.03 16.6 47.56 16.63 39.46"/></g><g id="_Group_5" data-name="&lt;Group&gt;"><path class="cls-1" d="M16.55,60.9h-.07a.24.24,0,0,1-.16-.23l0-7.93L8.82,50.25a.24.24,0,0,1,0-.45l7.54-2.42,0-7.92a.24.24,0,0,1,.43-.14l4.64,6.44L29,43.34a.24.24,0,0,1,.27.37L24.58,50.1l4.63,6.42a.24.24,0,0,1-.27.37l-7.53-2.47L16.74,60.8A.24.24,0,0,1,16.55,60.9ZM9.66,50l7,2.3a.24.24,0,0,1,.16.23l0,7.37L21.14,54a.24.24,0,0,1,.27-.09l7,2.3-4.3-6a.24.24,0,0,1,0-.28L28.45,44l-7,2.25a.24.24,0,0,1-.27-.09l-4.31-6,0,7.36a.24.24,0,0,1-.17.23Zm6.94-2.47h0Z"/></g><g id="_Group_6" data-name="&lt;Group&gt;"><polygon class="cls-2" points="83.03 60.47 78.3 53.9 70.59 56.37 75.38 49.84 70.64 43.27 78.33 45.81 83.11 39.27 83.08 47.37 90.77 49.91 83.06 52.37 83.03 60.47"/></g><g id="_Group_7" data-name="&lt;Group&gt;"><path class="cls-1" d="M83,60.71a.24.24,0,0,1-.19-.1L78.2,54.18l-7.54,2.41a.25.25,0,0,1-.27-.09.24.24,0,0,1,0-.28l4.69-6.38-4.63-6.43a.24.24,0,0,1,.27-.37l7.53,2.48,4.68-6.39a.24.24,0,0,1,.27-.09.24.24,0,0,1,.16.23l0,7.93,7.53,2.48a.24.24,0,0,1,0,.45L83.3,52.55l0,7.92a.24.24,0,0,1-.17.23Zm-4.74-7a.24.24,0,0,1,.19.1l4.31,6,0-7.36a.24.24,0,0,1,.17-.23l7-2.24-7-2.3a.24.24,0,0,1-.16-.23l0-7.36-4.35,5.94a.24.24,0,0,1-.27.09l-7-2.3,4.31,6a.24.24,0,0,1,0,.28l-4.35,5.93,7-2.24Z"/></g><g id="_Group_8" data-name="&lt;Group&gt;"><polygon class="cls-2" points="80.73 33.91 72.74 32.62 69.04 39.81 67.81 31.81 59.82 30.52 67.05 26.86 65.81 18.87 71.52 24.61 78.74 20.97 75.03 28.16 80.73 33.91"/></g><g id="_Group_9" data-name="&lt;Group&gt;"><path class="cls-1" d="M69,40h0a.24.24,0,0,1-.2-.2L67.6,32l-7.82-1.26a.24.24,0,0,1-.07-.45l7.07-3.57L65.57,18.9a.24.24,0,0,1,.13-.25.24.24,0,0,1,.28,0l5.59,5.63,7.07-3.57a.24.24,0,0,1,.32.32l-3.63,7,5.58,5.62a.24.24,0,0,1-.21.4l-7.82-1.27-3.63,7A.24.24,0,0,1,69,40ZM60.58,30.4l7.26,1.18a.24.24,0,0,1,.2.2L69.16,39l3.37-6.54a.24.24,0,0,1,.25-.13L80,33.56l-5.19-5.23a.24.24,0,0,1,0-.28l3.37-6.54-6.57,3.32a.24.24,0,0,1-.28,0l-5.19-5.23,1.13,7.27a.24.24,0,0,1-.13.25Z"/></g><g id="_Group_10" data-name="&lt;Group&gt;"><polygon class="cls-2" points="60.34 16.76 53.77 21.5 56.23 29.2 49.71 24.42 43.15 29.15 45.67 21.46 39.14 16.68 47.24 16.71 49.77 9.02 52.24 16.73 60.34 16.76"/></g><g id="_Group_11" data-name="&lt;Group&gt;"><path class="cls-1" d="M56.23,29.44a.24.24,0,0,1-.14,0l-6.38-4.68-6.43,4.63a.24.24,0,0,1-.37-.27l2.48-7.53L39,16.87a.24.24,0,0,1,.14-.43h0l7.93,0,2.47-7.52a.24.24,0,0,1,.23-.16h0a.24.24,0,0,1,.23.17l2.42,7.55,7.92,0a.24.24,0,0,1,.14.43L54,21.59l2.41,7.54a.24.24,0,0,1-.23.31Zm-6.52-5.26a.24.24,0,0,1,.14,0l5.93,4.35-2.24-7a.24.24,0,0,1,.09-.27l6-4.31-7.36,0A.24.24,0,0,1,52,16.8l-2.25-7-2.3,7a.24.24,0,0,1-.23.16h0l-7.37,0,5.94,4.35a.24.24,0,0,1,.09.27l-2.3,7,6-4.3A.24.24,0,0,1,49.71,24.18Z"/></g><g id="_Group_12" data-name="&lt;Group&gt;"><polygon class="cls-2" points="33.78 19.06 32.48 27.05 39.68 30.76 31.68 31.99 30.39 39.98 26.74 32.75 18.74 33.98 24.48 28.28 20.84 21.06 28.04 24.77 33.78 19.06"/></g><g id="_Group_13" data-name="&lt;Group&gt;"><path class="cls-1" d="M30.39,40.22a.24.24,0,0,1-.21-.13L26.6,33l-7.83,1.21a.24.24,0,0,1-.2-.41l5.62-5.58-3.57-7.07a.24.24,0,0,1,.32-.32l7,3.63,5.63-5.59a.24.24,0,0,1,.4.21l-1.27,7.83,7,3.63a.24.24,0,0,1-.07.45l-7.83,1.2L30.62,40a.24.24,0,0,1-.2.2Zm-3.65-7.71a.24.24,0,0,1,.21.13l3.32,6.58,1.18-7.27a.24.24,0,0,1,.2-.2l7.27-1.11-6.54-3.37a.24.24,0,0,1-.13-.25l1.18-7.27L28.2,24.93a.24.24,0,0,1-.28,0l-6.54-3.37,3.31,6.57a.24.24,0,0,1,0,.28l-5.22,5.19,7.27-1.12Z"/></g><path class="cls-1" d="M54.65,38.85V52.5h2.14v3.41H54.65v4.36H51V55.91h-8.1V52.47l8.67-13.62ZM51,52.5V45h-.06L46.25,52.5Z"/><g id="_Group_14" data-name="&lt;Group&gt;"><path class="cls-1" d="M21.32,70.13v3.56h2.15V70.13H24.9v8.61H23.46V74.95H21.32v3.79H19.88V70.13Z"/><path class="cls-1" d="M30.2,74.82H28.05v2.73h2.44v1.19H26.62V70.13h3.72v1.19H28.05v2.36H30.2Z"/><path class="cls-1" d="M33.07,76.5l-.48,2.24h-1.4l2-8.61h1.68l1.86,8.61H35.35l-.48-2.24Zm1.65-1.07-.37-2c-.12-.56-.24-1.35-.34-2h0c-.09.6-.23,1.43-.33,2l-.4,2Z"/></g><g id="_Group_15" data-name="&lt;Group&gt;"><path class="cls-1" d="M37.93,70.13h1.44v7.46h2.41v1.15H37.93Z"/></g><g id="_Group_16" data-name="&lt;Group&gt;"><path class="cls-1" d="M43.94,71.38H42.32V70.13H47v1.25H45.38v7.36H43.94Z"/><path class="cls-1" d="M49.55,70.13v3.56h2.15V70.13h1.44v8.61H51.69V74.95H49.55v3.79H48.11V70.13Z"/><path class="cls-1" d="M56.89,77.28a3.2,3.2,0,0,0,1.4.34c.88,0,1.37-.49,1.37-1.2s-.44-1.09-1.18-1.57a3,3,0,0,1-1.7-2.4,2.39,2.39,0,0,1,2.64-2.4,2.94,2.94,0,0,1,1.34.31l-.25,1.17a2.15,2.15,0,0,0-1.11-.29,1.08,1.08,0,0,0-1.21,1c0,.66.36,1,1.29,1.53a2.86,2.86,0,0,1,1.6,2.46,2.52,2.52,0,0,1-2.78,2.53,3.6,3.6,0,0,1-1.64-.36Z"/><path class="cls-1" d="M63.3,71.38H61.68V70.13h4.68v1.25H64.74v7.36H63.3Z"/><path class="cls-1" d="M68.75,76.5l-.48,2.24h-1.4l2-8.61h1.68l1.86,8.61H71l-.48-2.24Zm1.65-1.07-.37-2c-.12-.56-.24-1.35-.33-2h0c-.09.6-.23,1.43-.33,2l-.4,2Z"/></g><g id="_Group_17" data-name="&lt;Group&gt;"><path class="cls-1" d="M73.63,70.26a8,8,0,0,1,1.72-.17,3.26,3.26,0,0,1,2.24.63,2.18,2.18,0,0,1,.68,1.75,2.26,2.26,0,0,1-1.42,2.17v0c.64.22,1,.79,1.15,1.81a12.25,12.25,0,0,0,.55,2.26H77.06a11.52,11.52,0,0,1-.46-2.09c-.17-1.12-.51-1.48-1.23-1.48H75v3.58H73.63ZM75,74.11h.38a1.38,1.38,0,0,0,1.39-1.52c0-.84-.36-1.42-1.29-1.43a1.74,1.74,0,0,0-.48.05Z"/></g><g id="_Group_18" data-name="&lt;Group&gt;"><path class="cls-1" d="M33,81.87a8,8,0,0,1,1.72-.17,3.26,3.26,0,0,1,2.24.63,2.18,2.18,0,0,1,.68,1.75,2.26,2.26,0,0,1-1.42,2.17v0c.64.22,1,.79,1.15,1.81a12.25,12.25,0,0,0,.55,2.26H36.46A11.52,11.52,0,0,1,36,88.25c-.17-1.12-.51-1.48-1.23-1.48h-.32v3.58H33Zm1.42,3.86h.38a1.38,1.38,0,0,0,1.39-1.52c0-.84-.36-1.42-1.29-1.43a1.75,1.75,0,0,0-.48.05Z"/></g><g id="_Group_19" data-name="&lt;Group&gt;"><path class="cls-1" d="M40.38,88.11l-.48,2.24H38.5l2-8.61h1.68L44,90.35H42.66l-.48-2.24ZM42,87l-.37-2c-.12-.56-.24-1.35-.33-2h0c-.09.6-.23,1.43-.33,2l-.4,2Z"/></g><g id="_Group_20" data-name="&lt;Group&gt;"><path class="cls-1" d="M46.23,83H44.61V81.74h4.68V83H47.67v7.36H46.23Z"/></g><g id="_Group_21" data-name="&lt;Group&gt;"><path class="cls-1" d="M51.84,81.74v8.61H50.4V81.74Z"/></g><g id="_Group_22" data-name="&lt;Group&gt;"><path class="cls-1" d="M53.56,90.35V81.74h1.31l1.53,3.68c.32.78.78,1.89,1.06,2.72h0c-.08-1.1-.16-2.43-.16-4V81.74h1.26v8.61H57.27l-1.54-3.67a24.68,24.68,0,0,1-1-2.73h0c.07,1,.11,2.21.11,4v2.4Z"/></g><g id="_Group_23" data-name="&lt;Group&gt;"><path class="cls-1" d="M65.06,90.12a5.5,5.5,0,0,1-1.76.31A3.07,3.07,0,0,1,61,89.58a4.81,4.81,0,0,1-1.13-3.46c0-3.23,1.88-4.46,3.65-4.46a3.3,3.3,0,0,1,1.4.25l-.28,1.18a2.2,2.2,0,0,0-1-.21c-1.17,0-2.24.82-2.24,3.24s.94,3.13,1.89,3.13a1.19,1.19,0,0,0,.47-.06V86.78h-1V85.66h2.29Z"/></g></svg>