<svg id="Layer_1" data-name="Layer 1" xmlns="http://www.w3.org/2000/svg" viewBox="0 0 100 100"><defs><style>.cls-1{fill:#231f20;}.cls-2{fill:#fff;}</style></defs><title>HSR-2.5</title><path class="cls-1" d="M37.81,44.9c.15-2.4,1.16-6.29,5.31-6.29s5,3.56,5,5.76c0,2.49-.89,4.33-3.41,7.54-2,2.58-2.49,3.24-3,4.51h6.44V60H37.32c.15-3.24,1.41-5.76,4.39-9.59,2-2.52,3.16-4.27,3.16-6.14,0-1.13-.52-2.29-1.78-2.29-1.63,0-2,2-2.15,3.27Z"/><path class="cls-1" d="M53.29,56v4H50.16V56Z"/><path class="cls-1" d="M62.88,43.22v2.89H58.49l-.43,3.12a3.07,3.07,0,0,1,1.71-.54c1.89,0,3.82,1.9,3.82,5.54,0,3.41-1.53,6.08-4.49,6.08-2.36,0-3.82-1.68-4.19-4.57l2.58-.31c.16,1.23.75,2.2,1.69,2.2.77,0,1.79-.57,1.79-3.29S59.61,51.2,59.1,51.2a2.13,2.13,0,0,0-1.75,1.28l-2.09-.38,1.32-8.88Z"/><g id="_Group_" data-name="&lt;Group&gt;"><path class="cls-1" d="M49.83,99.12A49.33,49.33,0,1,1,99.15,49.79,49.38,49.38,0,0,1,49.83,99.12Zm0-98A48.68,48.68,0,1,0,98.51,49.79,48.74,48.74,0,0,0,49.83,1.11Z"/></g><g id="_Group_2" data-name="&lt;Group&gt;"><path class="cls-1" d="M34.05,56.44a17,17,0,0,1-1.35-6.64h0A17,17,0,0,1,34,43.29h0a17.11,17.11,0,0,1,3.72-5.59h0A17.2,17.2,0,0,1,43.23,34h0a17,17,0,0,1,6.57-1.32L49.75,6A43.62,43.62,0,0,0,32.94,9.35h0a43.78,43.78,0,0,0-14.11,9.47h0A43.88,43.88,0,0,0,9.3,33.13h0A43.63,43.63,0,0,0,6,49.8H6A43.8,43.8,0,0,0,9.1,66H43.22l.13-.33a17.23,17.23,0,0,1-9.31-9.18Z"/></g><g id="_Group_3" data-name="&lt;Group&gt;"><path class="cls-1" d="M49.83,6.93A42.85,42.85,0,0,1,89.9,65H59.6a18.09,18.09,0,1,0-19.52,0H9.75A42.87,42.87,0,0,1,49.83,6.93m0-1A43.82,43.82,0,0,0,9.1,66H44.21a17.11,17.11,0,1,1,11.25,0h35.1A43.81,43.81,0,0,0,49.83,6"/></g><g id="_Group_4" data-name="&lt;Group&gt;"><polygon class="cls-2" points="16.63 39.22 21.37 45.79 29.08 43.32 24.29 49.85 29.02 56.41 21.33 53.89 16.55 60.41 16.58 52.31 8.89 49.78 16.6 47.31 16.63 39.22"/></g><g id="_Group_5" data-name="&lt;Group&gt;"><path class="cls-1" d="M16.55,60.65h-.07a.24.24,0,0,1-.16-.23l0-7.93L8.82,50a.24.24,0,0,1,0-.45l7.54-2.42,0-7.92a.24.24,0,0,1,.43-.14l4.64,6.44L29,43.09a.24.24,0,0,1,.27.37l-4.69,6.39,4.63,6.42a.24.24,0,0,1-.27.37l-7.53-2.47-4.68,6.39A.24.24,0,0,1,16.55,60.65ZM9.66,49.79l7,2.3a.24.24,0,0,1,.16.23l0,7.37,4.35-5.94a.25.25,0,0,1,.27-.09l7,2.3-4.3-6a.24.24,0,0,1,0-.28l4.35-5.94-7,2.25a.24.24,0,0,1-.27-.09l-4.31-6,0,7.36a.24.24,0,0,1-.17.23Zm6.94-2.47h0Z"/></g><g id="_Group_6" data-name="&lt;Group&gt;"><polygon class="cls-2" points="83.03 60.23 78.3 53.66 70.59 56.12 75.38 49.6 70.64 43.03 78.33 45.56 83.11 39.03 83.08 47.13 90.77 49.66 83.06 52.13 83.03 60.23"/></g><g id="_Group_7" data-name="&lt;Group&gt;"><path class="cls-1" d="M83,60.46a.24.24,0,0,1-.19-.1L78.2,53.94l-7.54,2.41a.25.25,0,0,1-.27-.09.24.24,0,0,1,0-.28l4.69-6.38-4.63-6.43a.24.24,0,0,1,.27-.37l7.53,2.48,4.68-6.39a.24.24,0,0,1,.43.14l0,7.93,7.53,2.48a.24.24,0,0,1,0,.45L83.3,52.3l0,7.92a.24.24,0,0,1-.17.23Zm-4.74-7a.24.24,0,0,1,.19.1l4.31,6,0-7.36A.24.24,0,0,1,83,51.9l7-2.24-7-2.3a.24.24,0,0,1-.16-.23l0-7.36L78.53,45.7a.24.24,0,0,1-.27.09l-7-2.3,4.31,6a.24.24,0,0,1,0,.28l-4.35,5.93,7-2.24Z"/></g><g id="_Group_8" data-name="&lt;Group&gt;"><polygon class="cls-2" points="80.73 33.67 72.74 32.37 69.04 39.57 67.81 31.57 59.82 30.27 67.05 26.62 65.81 18.62 71.52 24.37 78.74 20.73 75.03 27.92 80.73 33.67"/></g><g id="_Group_9" data-name="&lt;Group&gt;"><path class="cls-1" d="M69,39.81h0a.24.24,0,0,1-.2-.2l-1.2-7.83-7.82-1.26a.24.24,0,0,1-.07-.45l7.07-3.57-1.21-7.83a.24.24,0,0,1,.13-.25.24.24,0,0,1,.28,0l5.59,5.63,7.07-3.57a.24.24,0,0,1,.32.32l-3.63,7L80.9,33.5a.24.24,0,0,1,0,.28.24.24,0,0,1-.25.13l-7.82-1.27-3.63,7A.24.24,0,0,1,69,39.81Zm-8.46-9.65,7.26,1.18a.24.24,0,0,1,.2.2l1.12,7.27,3.37-6.54a.24.24,0,0,1,.25-.13L80,33.31l-5.19-5.23a.24.24,0,0,1,0-.28l3.37-6.54-6.57,3.32a.24.24,0,0,1-.28,0l-5.19-5.23,1.13,7.27a.24.24,0,0,1-.13.25Z"/></g><g id="_Group_10" data-name="&lt;Group&gt;"><polygon class="cls-2" points="60.34 16.51 53.77 21.25 56.23 28.96 49.71 24.18 43.15 28.91 45.67 21.21 39.14 16.44 47.24 16.46 49.77 8.78 52.24 16.49 60.34 16.51"/></g><g id="_Group_11" data-name="&lt;Group&gt;"><path class="cls-1" d="M56.23,29.2a.24.24,0,0,1-.14,0l-6.38-4.68L43.28,29.1a.24.24,0,0,1-.28,0,.24.24,0,0,1-.09-.27L45.4,21.3,39,16.63a.24.24,0,0,1,.14-.43h0l7.93,0L49.54,8.7a.24.24,0,0,1,.23-.16h0A.24.24,0,0,1,50,8.7l2.42,7.55,7.92,0a.24.24,0,0,1,.14.43L54,21.34l2.41,7.54a.24.24,0,0,1-.23.31Zm-6.52-5.26a.24.24,0,0,1,.14,0l5.93,4.35-2.24-7a.24.24,0,0,1,.09-.27l6-4.31-7.36,0a.24.24,0,0,1-.23-.17l-2.25-7-2.3,7a.24.24,0,0,1-.23.16h0l-7.37,0L45.82,21a.24.24,0,0,1,.09.27l-2.3,7,6-4.3A.24.24,0,0,1,49.71,23.94Z"/></g><g id="_Group_12" data-name="&lt;Group&gt;"><polygon class="cls-2" points="33.78 18.81 32.48 26.81 39.68 30.52 31.68 31.74 30.39 39.74 26.74 32.51 18.74 33.74 24.48 28.04 20.84 20.81 28.04 24.52 33.78 18.81"/></g><g id="_Group_13" data-name="&lt;Group&gt;"><path class="cls-1" d="M30.39,40a.24.24,0,0,1-.21-.13L26.6,32.77,18.78,34a.24.24,0,0,1-.25-.13.24.24,0,0,1,0-.28L24.19,28l-3.57-7.07a.24.24,0,0,1,.32-.32l7,3.63,5.63-5.59a.24.24,0,0,1,.4.21l-1.27,7.83,7,3.63a.24.24,0,0,1-.07.45L31.89,32l-1.27,7.83a.24.24,0,0,1-.2.2Zm-3.65-7.71a.24.24,0,0,1,.21.13L30.27,39l1.18-7.27a.24.24,0,0,1,.2-.2l7.27-1.11L32.37,27a.24.24,0,0,1-.13-.25l1.18-7.27L28.2,24.69a.24.24,0,0,1-.28,0l-6.54-3.37,3.31,6.57a.24.24,0,0,1,0,.28l-5.22,5.19,7.27-1.12Z"/></g><g id="_Group_14" data-name="&lt;Group&gt;"><path class="cls-1" d="M21.32,69.89v3.56h2.15V69.89H24.9v8.61H23.46V74.7H21.32v3.79H19.88V69.89Z"/><path class="cls-1" d="M30.2,74.57H28v2.73h2.44v1.19H26.61V69.89h3.72v1.19H28v2.36H30.2Z"/><path class="cls-1" d="M33.06,76.26l-.48,2.24h-1.4l2-8.61h1.68l1.86,8.61H35.34l-.48-2.24Zm1.65-1.07-.37-2c-.12-.56-.24-1.35-.33-2h0c-.09.6-.23,1.43-.33,2l-.4,2Z"/></g><g id="_Group_15" data-name="&lt;Group&gt;"><path class="cls-1" d="M37.93,69.89h1.44v7.46h2.41v1.15H37.93Z"/></g><g id="_Group_16" data-name="&lt;Group&gt;"><path class="cls-1" d="M43.94,71.14H42.32V69.89H47v1.25H45.38v7.36H43.94Z"/><path class="cls-1" d="M49.54,69.89v3.56h2.15V69.89h1.44v8.61H51.69V74.7H49.54v3.79H48.11V69.89Z"/><path class="cls-1" d="M56.89,77a3.2,3.2,0,0,0,1.4.34c.88,0,1.37-.49,1.37-1.2s-.44-1.09-1.18-1.57a3,3,0,0,1-1.7-2.4,2.39,2.39,0,0,1,2.64-2.4,2.94,2.94,0,0,1,1.34.31l-.25,1.17A2.15,2.15,0,0,0,59.39,71a1.08,1.08,0,0,0-1.21,1c0,.66.36,1,1.29,1.53A2.86,2.86,0,0,1,61.06,76a2.52,2.52,0,0,1-2.78,2.53,3.6,3.6,0,0,1-1.64-.36Z"/><path class="cls-1" d="M63.3,71.14H61.68V69.89h4.68v1.25H64.74v7.36H63.3Z"/><path class="cls-1" d="M68.75,76.26l-.48,2.24h-1.4l2-8.61h1.68l1.86,8.61H71l-.48-2.24Zm1.65-1.07-.37-2c-.12-.56-.24-1.35-.34-2h0c-.09.6-.23,1.43-.33,2l-.4,2Z"/></g><g id="_Group_17" data-name="&lt;Group&gt;"><path class="cls-1" d="M73.63,70a8,8,0,0,1,1.72-.17,3.26,3.26,0,0,1,2.24.63,2.18,2.18,0,0,1,.68,1.75,2.26,2.26,0,0,1-1.42,2.17v0c.64.22,1,.79,1.15,1.81a12.25,12.25,0,0,0,.55,2.26H77.06a11.52,11.52,0,0,1-.46-2.09c-.17-1.12-.51-1.48-1.23-1.48H75v3.58H73.63ZM75,73.87h.38a1.38,1.38,0,0,0,1.39-1.52c0-.84-.36-1.42-1.29-1.43A1.75,1.75,0,0,0,75,71Z"/></g><g id="_Group_18" data-name="&lt;Group&gt;"><path class="cls-1" d="M33,81.62a8,8,0,0,1,1.72-.17,3.26,3.26,0,0,1,2.24.63,2.18,2.18,0,0,1,.68,1.75A2.26,2.26,0,0,1,36.24,86v0c.64.22,1,.79,1.15,1.81a12.25,12.25,0,0,0,.55,2.26H36.46A11.52,11.52,0,0,1,36,88c-.17-1.12-.51-1.48-1.23-1.48h-.32V90.1H33Zm1.42,3.86h.38A1.38,1.38,0,0,0,36.22,84c0-.84-.36-1.42-1.29-1.43a1.75,1.75,0,0,0-.48.05Z"/></g><g id="_Group_19" data-name="&lt;Group&gt;"><path class="cls-1" d="M40.37,87.87l-.48,2.24H38.5l2-8.61h1.68L44,90.1H42.65l-.48-2.24ZM42,86.8l-.37-2c-.12-.56-.24-1.35-.34-2h0c-.09.6-.23,1.43-.33,2l-.4,2Z"/></g><g id="_Group_20" data-name="&lt;Group&gt;"><path class="cls-1" d="M46.23,82.75H44.61V81.5h4.68v1.25H47.67V90.1H46.23Z"/></g><g id="_Group_21" data-name="&lt;Group&gt;"><path class="cls-1" d="M51.84,81.5V90.1H50.4V81.5Z"/></g><g id="_Group_22" data-name="&lt;Group&gt;"><path class="cls-1" d="M53.55,90.1V81.5h1.31l1.53,3.68c.32.78.78,1.89,1.06,2.72h0c-.08-1.1-.16-2.43-.16-4V81.5h1.26V90.1H57.27l-1.54-3.67a24.68,24.68,0,0,1-1-2.73h0c.07,1,.11,2.21.11,4v2.4Z"/></g><g id="_Group_23" data-name="&lt;Group&gt;"><path class="cls-1" d="M65.06,89.87a5.5,5.5,0,0,1-1.76.31A3.07,3.07,0,0,1,61,89.34a4.81,4.81,0,0,1-1.13-3.46c0-3.23,1.88-4.46,3.65-4.46a3.3,3.3,0,0,1,1.4.25l-.28,1.18a2.2,2.2,0,0,0-1-.21c-1.17,0-2.24.82-2.24,3.24S62.31,89,63.26,89a1.19,1.19,0,0,0,.47-.06V86.54h-1V85.42h2.29Z"/></g></svg>