<svg id="Layer_1" data-name="Layer 1" xmlns="http://www.w3.org/2000/svg" viewBox="0 0 100 100"><defs><style>.cls-1{fill:#231f20;}.cls-2{fill:#fff;}</style></defs><title>HSR-5</title><g id="_Group_" data-name="&lt;Group&gt;"><path class="cls-1" d="M49.83,99.63A49.33,49.33,0,1,1,99.15,50.3,49.38,49.38,0,0,1,49.83,99.63Zm0-98A48.68,48.68,0,1,0,98.51,50.3,48.74,48.74,0,0,0,49.83,1.62Z"/></g><g id="_Group_2" data-name="&lt;Group&gt;"><path class="cls-1" d="M90.23,33.3h0a43.82,43.82,0,0,0-9.51-14.08h0A43.71,43.71,0,0,0,66.42,9.74h0a43.67,43.67,0,0,0-16.6-3.26h-.08A43.62,43.62,0,0,0,32.94,9.86h0a43.78,43.78,0,0,0-14.11,9.47h0A43.88,43.88,0,0,0,9.3,33.64h0A43.63,43.63,0,0,0,6,50.3H6A43.8,43.8,0,0,0,9.1,66.46H43.22l.13-.33a17.23,17.23,0,0,1-9.31-9.18,17,17,0,0,1-1.35-6.64h0A17,17,0,0,1,34,43.8h0a17.11,17.11,0,0,1,3.72-5.59h0a17.2,17.2,0,0,1,5.51-3.7h0a17,17,0,0,1,6.57-1.32h0a17,17,0,0,1,6.48,1.29h0a17.05,17.05,0,0,1,5.58,3.7h0a17.14,17.14,0,0,1,3.72,5.5h0A17,17,0,0,1,67,50.3h0a17,17,0,0,1-1.29,6.51,17.2,17.2,0,0,1-9.23,9.26l.16.38h34A43.66,43.66,0,0,0,93.65,50.3h0A43.63,43.63,0,0,0,90.23,33.3Z"/></g><g id="_Group_3" data-name="&lt;Group&gt;"><path class="cls-1" d="M49.83,7.44A42.85,42.85,0,0,1,89.9,65.5H59.6a18.09,18.09,0,1,0-19.52,0H9.75A42.87,42.87,0,0,1,49.83,7.44m0-1a43.82,43.82,0,0,0-40.73,60H44.21a17.11,17.11,0,1,1,11.25,0h35.1a43.81,43.81,0,0,0-40.73-60"/></g><g id="_Group_4" data-name="&lt;Group&gt;"><polygon class="cls-2" points="16.63 39.72 21.37 46.3 29.08 43.83 24.29 50.36 29.02 56.92 21.33 54.39 16.55 60.92 16.58 52.82 8.89 50.29 16.6 47.82 16.63 39.72"/></g><g id="_Group_5" data-name="&lt;Group&gt;"><path class="cls-1" d="M16.55,61.16h-.07a.24.24,0,0,1-.16-.23l0-7.93L8.82,50.52a.24.24,0,0,1,0-.45l7.54-2.42,0-7.92a.24.24,0,0,1,.43-.14L21.46,46,29,43.6a.24.24,0,0,1,.27.37l-4.69,6.39,4.63,6.42a.24.24,0,0,1-.27.37l-7.53-2.48-4.68,6.39A.24.24,0,0,1,16.55,61.16ZM9.66,50.29l7,2.3a.24.24,0,0,1,.16.23l0,7.37,4.35-5.94a.24.24,0,0,1,.27-.09l7,2.3-4.3-6a.24.24,0,0,1,0-.28l4.35-5.94-7,2.25a.24.24,0,0,1-.27-.09l-4.31-6,0,7.36a.24.24,0,0,1-.17.23Zm6.94-2.47h0Z"/></g><g id="_Group_6" data-name="&lt;Group&gt;"><polygon class="cls-2" points="83.03 60.73 78.3 54.16 70.59 56.63 75.38 50.1 70.64 43.53 78.33 46.07 83.11 39.54 83.08 47.63 90.77 50.17 83.06 52.64 83.03 60.73"/></g><g id="_Group_7" data-name="&lt;Group&gt;"><path class="cls-1" d="M83,61a.24.24,0,0,1-.19-.1L78.2,54.44l-7.54,2.41a.24.24,0,0,1-.27-.09.24.24,0,0,1,0-.28l4.69-6.39-4.63-6.43a.24.24,0,0,1,.27-.37l7.53,2.48,4.68-6.39a.24.24,0,0,1,.27-.09.24.24,0,0,1,.16.23l0,7.92,7.53,2.48a.24.24,0,0,1,0,.45L83.3,52.81l0,7.92a.24.24,0,0,1-.17.23Zm-4.74-7a.24.24,0,0,1,.19.1l4.31,6,0-7.36a.24.24,0,0,1,.17-.23l7-2.24-7-2.31a.24.24,0,0,1-.16-.23l0-7.36-4.35,5.94a.24.24,0,0,1-.27.09l-7-2.3,4.31,6a.24.24,0,0,1,0,.28l-4.35,5.93,7-2.24Z"/></g><g id="_Group_8" data-name="&lt;Group&gt;"><polygon class="cls-2" points="80.73 34.17 72.74 32.88 69.04 40.07 67.81 32.07 59.82 30.78 67.05 27.13 65.81 19.13 71.52 24.88 78.74 21.23 75.03 28.43 80.73 34.17"/></g><g id="_Group_9" data-name="&lt;Group&gt;"><path class="cls-1" d="M69,40.31h0a.24.24,0,0,1-.2-.2l-1.2-7.83L59.78,31a.24.24,0,0,1-.07-.45L66.78,27l-1.21-7.83a.24.24,0,0,1,.13-.25A.24.24,0,0,1,66,19l5.59,5.63L78.63,21a.24.24,0,0,1,.32.32l-3.63,7L80.9,34a.24.24,0,0,1,0,.28.24.24,0,0,1-.25.13l-7.82-1.27-3.63,7A.24.24,0,0,1,69,40.31Zm-8.46-9.65,7.26,1.18a.24.24,0,0,1,.2.2l1.12,7.27,3.37-6.54a.24.24,0,0,1,.25-.13L80,33.82,74.86,28.6a.24.24,0,0,1,0-.28l3.37-6.54-6.57,3.32a.23.23,0,0,1-.28,0l-5.19-5.23,1.13,7.27a.24.24,0,0,1-.13.25Z"/></g><g id="_Group_10" data-name="&lt;Group&gt;"><polygon class="cls-2" points="60.34 17.02 53.77 21.76 56.23 29.47 49.71 24.68 43.15 29.41 45.67 21.72 39.14 16.94 47.24 16.97 49.77 9.28 52.24 16.99 60.34 17.02"/></g><g id="_Group_11" data-name="&lt;Group&gt;"><path class="cls-1" d="M56.23,29.71a.24.24,0,0,1-.14,0L49.71,25l-6.43,4.63a.24.24,0,0,1-.37-.27l2.48-7.53L39,17.13a.24.24,0,0,1,.14-.43h0l7.93,0,2.47-7.52A.24.24,0,0,1,49.77,9h0a.24.24,0,0,1,.23.17l2.42,7.55,7.92,0a.24.24,0,0,1,.14.43L54,21.85l2.41,7.54a.24.24,0,0,1-.23.31Zm-6.52-5.26a.24.24,0,0,1,.14,0l5.93,4.35-2.24-7a.24.24,0,0,1,.09-.27l6-4.31-7.36,0a.24.24,0,0,1-.23-.17l-2.25-7-2.3,7a.24.24,0,0,1-.23.16h0l-7.37,0,5.94,4.35a.24.24,0,0,1,.09.27l-2.3,7,6-4.3A.24.24,0,0,1,49.71,24.44Z"/></g><g id="_Group_12" data-name="&lt;Group&gt;"><polygon class="cls-2" points="33.78 19.32 32.48 27.32 39.68 31.02 31.68 32.25 30.39 40.25 26.74 33.02 18.74 34.25 24.48 28.55 20.84 21.32 28.04 25.03 33.78 19.32"/></g><g id="_Group_13" data-name="&lt;Group&gt;"><path class="cls-1" d="M30.39,40.48a.24.24,0,0,1-.21-.13L26.6,33.28l-7.83,1.21a.24.24,0,0,1-.2-.41l5.62-5.58-3.57-7.07a.24.24,0,0,1,.32-.32l7,3.63,5.63-5.59a.24.24,0,0,1,.4.21l-1.27,7.83,7,3.63a.24.24,0,0,1-.07.45l-7.83,1.2-1.27,7.83a.24.24,0,0,1-.2.2Zm-3.65-7.71a.24.24,0,0,1,.21.13l3.32,6.58,1.18-7.27a.24.24,0,0,1,.2-.2l7.27-1.11-6.54-3.37a.24.24,0,0,1-.13-.25L33.43,20,28.2,25.2a.24.24,0,0,1-.28,0l-6.54-3.37,3.31,6.57a.24.24,0,0,1,0,.28L19.43,33.9l7.27-1.12Z"/></g><path class="cls-1" d="M55.3,39.47v3.62H48.69L48,47a5.27,5.27,0,0,1,2.58-.68c2.85,0,5.76,2.37,5.76,6.94,0,4.27-2.31,7.63-6.77,7.63-3.56,0-5.76-2.11-6.32-5.73l3.89-.39c.24,1.54,1.13,2.76,2.55,2.76,1.16,0,2.7-.71,2.7-4.13s-2-3.95-2.82-3.95A3.2,3.2,0,0,0,47,51.07l-3.15-.47,2-11.13Z"/><g id="_Group_14" data-name="&lt;Group&gt;"><path class="cls-1" d="M21.32,70.39V74h2.15V70.39H24.9V79H23.47V75.21H21.32V79H19.88V70.39Z"/><path class="cls-1" d="M30.2,75.08H28.05v2.73h2.44V79H26.62V70.39h3.72v1.19H28.05v2.36H30.2Z"/><path class="cls-1" d="M33.07,76.76,32.58,79h-1.4l2-8.61h1.68L36.74,79H35.35l-.48-2.24Zm1.65-1.07-.37-2c-.12-.56-.24-1.35-.33-2h0c-.09.6-.23,1.43-.33,2l-.4,2Z"/></g><g id="_Group_15" data-name="&lt;Group&gt;"><path class="cls-1" d="M37.93,70.39h1.44v7.46h2.41V79H37.93Z"/></g><g id="_Group_16" data-name="&lt;Group&gt;"><path class="cls-1" d="M43.94,71.64H42.32V70.39H47v1.25H45.38V79H43.94Z"/><path class="cls-1" d="M49.55,70.39V74h2.15V70.39h1.44V79H51.69V75.21H49.55V79H48.11V70.39Z"/><path class="cls-1" d="M56.89,77.54a3.2,3.2,0,0,0,1.4.34c.88,0,1.37-.49,1.37-1.2s-.44-1.09-1.18-1.57a3,3,0,0,1-1.7-2.4,2.39,2.39,0,0,1,2.64-2.4,2.94,2.94,0,0,1,1.34.31L60.5,71.8a2.15,2.15,0,0,0-1.11-.29,1.08,1.08,0,0,0-1.21,1c0,.66.36,1,1.29,1.53a2.86,2.86,0,0,1,1.6,2.46,2.52,2.52,0,0,1-2.78,2.53,3.6,3.6,0,0,1-1.64-.36Z"/><path class="cls-1" d="M63.3,71.64H61.68V70.39h4.68v1.25H64.74V79H63.3Z"/><path class="cls-1" d="M68.75,76.76,68.27,79h-1.4l2-8.61h1.68L72.42,79H71l-.48-2.24Zm1.65-1.07-.37-2c-.12-.56-.24-1.35-.34-2h0c-.09.6-.23,1.43-.33,2l-.4,2Z"/></g><g id="_Group_17" data-name="&lt;Group&gt;"><path class="cls-1" d="M73.63,70.52a8,8,0,0,1,1.72-.17,3.26,3.26,0,0,1,2.24.63,2.18,2.18,0,0,1,.68,1.75,2.26,2.26,0,0,1-1.42,2.17v0c.64.22,1,.79,1.15,1.81A12.25,12.25,0,0,0,78.55,79H77.06a11.52,11.52,0,0,1-.46-2.09c-.17-1.12-.51-1.48-1.23-1.48h-.32V79H73.63Zm1.42,3.86h.38a1.38,1.38,0,0,0,1.39-1.52c0-.84-.36-1.42-1.29-1.43a1.75,1.75,0,0,0-.48.05Z"/></g><g id="_Group_18" data-name="&lt;Group&gt;"><path class="cls-1" d="M33,82.13A8,8,0,0,1,34.74,82a3.26,3.26,0,0,1,2.24.63,2.18,2.18,0,0,1,.68,1.75,2.26,2.26,0,0,1-1.42,2.17v0c.64.22,1,.79,1.15,1.81a12.25,12.25,0,0,0,.55,2.26H36.46A11.52,11.52,0,0,1,36,88.51c-.17-1.12-.51-1.48-1.23-1.48h-.32v3.58H33ZM34.45,86h.38a1.38,1.38,0,0,0,1.39-1.52c0-.84-.36-1.42-1.29-1.43a1.75,1.75,0,0,0-.48.05Z"/></g><g id="_Group_19" data-name="&lt;Group&gt;"><path class="cls-1" d="M40.38,88.37l-.48,2.24H38.5l2-8.61h1.68l1.86,8.61H42.66l-.48-2.24ZM42,87.3l-.37-2c-.12-.56-.24-1.35-.34-2h0c-.09.6-.23,1.43-.33,2l-.4,2Z"/></g><g id="_Group_20" data-name="&lt;Group&gt;"><path class="cls-1" d="M46.23,83.25H44.61V82h4.68v1.25H47.67v7.36H46.23Z"/></g><g id="_Group_21" data-name="&lt;Group&gt;"><path class="cls-1" d="M51.84,82v8.61H50.4V82Z"/></g><g id="_Group_22" data-name="&lt;Group&gt;"><path class="cls-1" d="M53.56,90.61V82h1.31l1.53,3.68c.32.78.78,1.89,1.06,2.72h0c-.08-1.1-.16-2.43-.16-4V82h1.26v8.61H57.27l-1.54-3.67a24.68,24.68,0,0,1-1-2.73h0c.07,1,.11,2.21.11,4v2.4Z"/></g><g id="_Group_23" data-name="&lt;Group&gt;"><path class="cls-1" d="M65.06,90.38a5.5,5.5,0,0,1-1.76.31A3.07,3.07,0,0,1,61,89.84a4.81,4.81,0,0,1-1.13-3.46c0-3.23,1.88-4.46,3.65-4.46a3.3,3.3,0,0,1,1.4.25l-.28,1.18a2.2,2.2,0,0,0-1-.21c-1.17,0-2.24.82-2.24,3.24s.94,3.13,1.89,3.13a1.19,1.19,0,0,0,.47-.06V87h-1V85.92h2.29Z"/></g></svg>