<svg id="Layer_1" data-name="Layer 1" xmlns="http://www.w3.org/2000/svg" viewBox="0 0 100 100"><defs><style>.cls-1{fill:#231f20;}.cls-2{fill:#fff;}</style></defs><title>HSR-1.5</title><g id="_Group_" data-name="&lt;Group&gt;"><path class="cls-1" d="M49.83,99.55A49.33,49.33,0,1,1,99.15,50.22,49.38,49.38,0,0,1,49.83,99.55Zm0-98A48.68,48.68,0,1,0,98.51,50.22,48.74,48.74,0,0,0,49.83,1.54Z"/></g><g id="_Group_2" data-name="&lt;Group&gt;"><path class="cls-1" d="M37.78,62.36a17.26,17.26,0,0,1-3.73-5.49A17,17,0,0,1,34,43.82h0a16.47,16.47,0,0,1,3.72-5.71L18.83,19.25A43.2,43.2,0,0,0,9.34,33.58l0,0A43.63,43.63,0,0,0,6,50.17H6s0,0,0,0H6A43.88,43.88,0,0,0,9.1,66.39H43.22l.13-.33A17.26,17.26,0,0,1,37.78,62.36Z"/></g><g id="_Group_3" data-name="&lt;Group&gt;"><path class="cls-1" d="M49.83,7.36A42.85,42.85,0,0,1,89.9,65.43H59.6a18.09,18.09,0,1,0-19.52,0H9.75A42.87,42.87,0,0,1,49.83,7.36m0-1a43.82,43.82,0,0,0-40.73,60H44.21a17.11,17.11,0,1,1,11.25,0h35.1a43.81,43.81,0,0,0-40.73-60"/></g><g id="_Group_4" data-name="&lt;Group&gt;"><polygon class="cls-2" points="16.63 39.65 21.37 46.22 29.08 43.75 24.29 50.28 29.02 56.84 21.33 54.31 16.55 60.84 16.58 52.74 8.89 50.21 16.6 47.74 16.63 39.65"/></g><g id="_Group_5" data-name="&lt;Group&gt;"><path class="cls-1" d="M16.55,61.08h-.07a.24.24,0,0,1-.16-.23l0-7.93L8.82,50.44a.24.24,0,0,1,0-.45l7.54-2.42,0-7.92a.24.24,0,0,1,.43-.14l4.64,6.44L29,43.52a.24.24,0,0,1,.27.37l-4.69,6.39,4.63,6.42a.24.24,0,0,1-.27.37l-7.53-2.47L16.74,61A.24.24,0,0,1,16.55,61.08ZM9.66,50.21l7,2.3a.24.24,0,0,1,.16.23l0,7.37,4.35-5.94a.24.24,0,0,1,.27-.09l7,2.3-4.3-6a.24.24,0,0,1,0-.28l4.35-5.94-7,2.25a.24.24,0,0,1-.27-.09l-4.31-6,0,7.36a.24.24,0,0,1-.17.23Zm6.94-2.47h0Z"/></g><g id="_Group_6" data-name="&lt;Group&gt;"><polygon class="cls-2" points="83.03 60.65 78.3 54.08 70.59 56.55 75.38 50.02 70.64 43.46 78.33 45.99 83.11 39.46 83.08 47.56 90.77 50.09 83.06 52.56 83.03 60.65"/></g><g id="_Group_7" data-name="&lt;Group&gt;"><path class="cls-1" d="M83,60.89a.24.24,0,0,1-.19-.1L78.2,54.36l-7.54,2.41a.24.24,0,0,1-.27-.09.24.24,0,0,1,0-.28L75.08,50,70.45,43.6a.24.24,0,0,1,.27-.37l7.53,2.48,4.68-6.39a.24.24,0,0,1,.43.14l0,7.93,7.53,2.48a.24.24,0,0,1,0,.45L83.3,52.73l0,7.92a.24.24,0,0,1-.17.23Zm-4.74-7a.24.24,0,0,1,.19.1l4.31,6,0-7.36a.24.24,0,0,1,.17-.23l7-2.24-7-2.3a.24.24,0,0,1-.16-.23l0-7.36-4.35,5.94a.25.25,0,0,1-.27.09l-7-2.31,4.31,6a.24.24,0,0,1,0,.28L71.22,56.1l7-2.24Z"/></g><g id="_Group_8" data-name="&lt;Group&gt;"><polygon class="cls-2" points="80.73 34.1 72.74 32.8 69.04 39.99 67.81 32 59.82 30.7 67.05 27.05 65.81 19.05 71.52 24.8 78.74 21.15 75.03 28.35 80.73 34.1"/></g><g id="_Group_9" data-name="&lt;Group&gt;"><path class="cls-1" d="M69,40.23h0a.24.24,0,0,1-.2-.2L67.6,32.2l-7.82-1.26a.24.24,0,0,1-.07-.45l7.07-3.57-1.21-7.83a.24.24,0,0,1,.13-.25.24.24,0,0,1,.28,0l5.59,5.63,7.07-3.57a.24.24,0,0,1,.32.32l-3.63,7,5.58,5.62a.24.24,0,0,1,0,.28.24.24,0,0,1-.25.13l-7.82-1.27-3.63,7A.24.24,0,0,1,69,40.23Zm-8.46-9.65,7.26,1.18a.24.24,0,0,1,.2.2l1.12,7.27,3.37-6.54a.24.24,0,0,1,.25-.13L80,33.74l-5.19-5.23a.24.24,0,0,1,0-.28l3.37-6.54L71.62,25a.24.24,0,0,1-.28,0l-5.19-5.23L67.28,27a.24.24,0,0,1-.13.25Z"/></g><g id="_Group_10" data-name="&lt;Group&gt;"><polygon class="cls-2" points="60.34 16.94 53.77 21.68 56.23 29.39 49.71 24.6 43.15 29.34 45.67 21.64 39.14 16.86 47.24 16.89 49.77 9.2 52.24 16.91 60.34 16.94"/></g><g id="_Group_11" data-name="&lt;Group&gt;"><path class="cls-1" d="M56.23,29.63a.24.24,0,0,1-.14,0L49.71,24.9l-6.43,4.63a.24.24,0,0,1-.28,0,.24.24,0,0,1-.09-.27l2.48-7.53L39,17.06a.24.24,0,0,1,.14-.43h0l7.93,0,2.47-7.52A.24.24,0,0,1,49.77,9h0a.24.24,0,0,1,.23.17l2.42,7.55,7.92,0a.24.24,0,0,1,.14.43L54,21.77l2.41,7.54a.24.24,0,0,1-.23.31Zm-6.52-5.26a.24.24,0,0,1,.14,0l5.93,4.35-2.24-7a.24.24,0,0,1,.09-.27l6-4.31-7.36,0A.24.24,0,0,1,52,17l-2.25-7-2.3,7a.24.24,0,0,1-.23.16h0l-7.37,0,5.94,4.34a.24.24,0,0,1,.09.27l-2.3,7,6-4.3A.24.24,0,0,1,49.71,24.36Z"/></g><g id="_Group_12" data-name="&lt;Group&gt;"><polygon class="cls-2" points="33.78 19.24 32.48 27.24 39.68 30.95 31.68 32.17 30.39 40.17 26.74 32.94 18.74 34.17 24.48 28.47 20.84 21.24 28.04 24.95 33.78 19.24"/></g><g id="_Group_13" data-name="&lt;Group&gt;"><path class="cls-1" d="M30.39,40.41a.24.24,0,0,1-.21-.13L26.6,33.2l-7.83,1.21a.24.24,0,0,1-.25-.13.24.24,0,0,1,0-.28l5.62-5.58-3.57-7.07a.24.24,0,0,1,.32-.32l7,3.63,5.63-5.59a.24.24,0,0,1,.4.21l-1.27,7.83,7,3.63a.24.24,0,0,1-.07.45l-7.83,1.2-1.27,7.83a.24.24,0,0,1-.2.2ZM26.74,32.7a.24.24,0,0,1,.21.13l3.32,6.58,1.18-7.27a.24.24,0,0,1,.2-.2l7.27-1.11-6.54-3.37a.24.24,0,0,1-.13-.25l1.18-7.27L28.2,25.12a.24.24,0,0,1-.28,0l-6.54-3.37,3.31,6.57a.24.24,0,0,1,0,.28l-5.22,5.19L26.7,32.7Z"/></g><path class="cls-1" d="M44.32,39V60.46H40.43V45a11.8,11.8,0,0,1-4.09,3.18V44.52c3.15-2.25,4.09-3.74,4.87-5.49Z"/><path class="cls-1" d="M50.94,56.45v4H47.17v-4Z"/><path class="cls-1" d="M62.47,43.65v2.89H57.19l-.52,3.12a4.21,4.21,0,0,1,2.06-.54c2.27,0,4.59,1.89,4.59,5.54,0,3.41-1.85,6.08-5.4,6.08-2.84,0-4.59-1.68-5-4.57l3.1-.31c.19,1.23.9,2.2,2,2.2.92,0,2.15-.57,2.15-3.29s-1.63-3.15-2.25-3.15a2.55,2.55,0,0,0-2.11,1.28l-2.51-.38,1.59-8.88Z"/><g id="_Group_14" data-name="&lt;Group&gt;"><path class="cls-1" d="M21.32,70.31v3.56h2.15V70.31H24.9v8.61H23.46V75.13H21.32v3.79H19.88V70.31Z"/><path class="cls-1" d="M30.2,75H28v2.73h2.44v1.19H26.61V70.31h3.72V71.5H28v2.36H30.2Z"/><path class="cls-1" d="M33.06,76.69l-.48,2.24h-1.4l2-8.61h1.68l1.86,8.61H35.34l-.48-2.24Zm1.65-1.07-.37-2c-.12-.56-.24-1.35-.33-2h0c-.09.6-.23,1.43-.33,2l-.4,2Z"/></g><g id="_Group_15" data-name="&lt;Group&gt;"><path class="cls-1" d="M37.93,70.31h1.44v7.46h2.41v1.15H37.93Z"/></g><g id="_Group_16" data-name="&lt;Group&gt;"><path class="cls-1" d="M43.94,71.57H42.32V70.31H47v1.25H45.38v7.36H43.94Z"/><path class="cls-1" d="M49.54,70.31v3.56h2.15V70.31h1.44v8.61H51.69V75.13H49.54v3.79H48.11V70.31Z"/><path class="cls-1" d="M56.89,77.47a3.2,3.2,0,0,0,1.4.34c.88,0,1.37-.49,1.37-1.2s-.44-1.09-1.18-1.57a3,3,0,0,1-1.7-2.4,2.39,2.39,0,0,1,2.64-2.4,2.94,2.94,0,0,1,1.34.31l-.25,1.17a2.15,2.15,0,0,0-1.11-.29,1.08,1.08,0,0,0-1.21,1c0,.66.36,1,1.29,1.53a2.86,2.86,0,0,1,1.6,2.46A2.52,2.52,0,0,1,58.29,79a3.6,3.6,0,0,1-1.64-.36Z"/><path class="cls-1" d="M63.3,71.57H61.68V70.31h4.68v1.25H64.74v7.36H63.3Z"/><path class="cls-1" d="M68.75,76.69l-.48,2.24h-1.4l2-8.61h1.68l1.86,8.61H71l-.48-2.24Zm1.65-1.07-.37-2c-.12-.56-.24-1.35-.34-2h0c-.09.6-.23,1.43-.33,2l-.4,2Z"/></g><g id="_Group_17" data-name="&lt;Group&gt;"><path class="cls-1" d="M73.63,70.44a8,8,0,0,1,1.72-.17,3.26,3.26,0,0,1,2.24.63,2.18,2.18,0,0,1,.68,1.75,2.26,2.26,0,0,1-1.42,2.17v0c.64.22,1,.79,1.15,1.81a12.25,12.25,0,0,0,.55,2.26H77.06a11.52,11.52,0,0,1-.46-2.09c-.17-1.12-.51-1.48-1.23-1.48H75v3.58H73.63ZM75,74.3h.38a1.38,1.38,0,0,0,1.39-1.52c0-.84-.36-1.42-1.29-1.43a1.75,1.75,0,0,0-.48.05Z"/></g><g id="_Group_18" data-name="&lt;Group&gt;"><path class="cls-1" d="M33,82.05a8,8,0,0,1,1.72-.17,3.26,3.26,0,0,1,2.24.63,2.18,2.18,0,0,1,.68,1.75,2.26,2.26,0,0,1-1.42,2.17v0c.64.22,1,.79,1.15,1.81a12.25,12.25,0,0,0,.55,2.26H36.46A11.52,11.52,0,0,1,36,88.44c-.17-1.12-.51-1.48-1.23-1.48h-.32v3.58H33Zm1.42,3.86h.38a1.38,1.38,0,0,0,1.39-1.52c0-.84-.36-1.42-1.29-1.43a1.75,1.75,0,0,0-.48.05Z"/></g><g id="_Group_19" data-name="&lt;Group&gt;"><path class="cls-1" d="M40.37,88.3l-.48,2.24H38.5l2-8.61h1.68L44,90.53H42.65l-.48-2.24ZM42,87.22l-.37-2c-.12-.56-.24-1.35-.34-2h0c-.09.6-.23,1.43-.33,2l-.4,2Z"/></g><g id="_Group_20" data-name="&lt;Group&gt;"><path class="cls-1" d="M46.23,83.17H44.61V81.92h4.68v1.25H47.67v7.36H46.23Z"/></g><g id="_Group_21" data-name="&lt;Group&gt;"><path class="cls-1" d="M51.84,81.92v8.61H50.4V81.92Z"/></g><g id="_Group_22" data-name="&lt;Group&gt;"><path class="cls-1" d="M53.55,90.53V81.92h1.31L56.4,85.6c.32.78.78,1.89,1.06,2.72h0c-.08-1.1-.16-2.43-.16-4V81.92h1.26v8.61H57.27l-1.54-3.67a24.68,24.68,0,0,1-1-2.73h0c.07,1,.11,2.21.11,4v2.4Z"/></g><g id="_Group_23" data-name="&lt;Group&gt;"><path class="cls-1" d="M65.06,90.3a5.5,5.5,0,0,1-1.76.31A3.07,3.07,0,0,1,61,89.76a4.81,4.81,0,0,1-1.13-3.46c0-3.23,1.88-4.46,3.65-4.46a3.3,3.3,0,0,1,1.4.25l-.28,1.18a2.2,2.2,0,0,0-1-.21c-1.17,0-2.24.82-2.24,3.24s.94,3.13,1.89,3.13a1.19,1.19,0,0,0,.47-.06V87h-1V85.84h2.29Z"/></g></svg>