<svg id="Layer_1" data-name="Layer 1" xmlns="http://www.w3.org/2000/svg" viewBox="0 0 100 100"><defs><style>.cls-1{fill:#231f20;}.cls-2{fill:#fff;}</style></defs><title>HSR-2</title><g id="_Group_" data-name="&lt;Group&gt;"><path class="cls-1" d="M49.83,99.42A49.33,49.33,0,1,1,99.15,50.09,49.38,49.38,0,0,1,49.83,99.42Zm0-98A48.68,48.68,0,1,0,98.51,50.09,48.74,48.74,0,0,0,49.83,1.41Z"/></g><g id="_Group_2" data-name="&lt;Group&gt;"><path class="cls-1" d="M37.78,62.23a17.26,17.26,0,0,1-3.73-5.49,17,17,0,0,1-1.35-6.64h0A17,17,0,0,1,34,43.59h0A17.11,17.11,0,0,1,37.72,38h0a17.2,17.2,0,0,1,5.51-3.7L32.94,9.65a43.78,43.78,0,0,0-14.11,9.47h0A43.88,43.88,0,0,0,9.3,33.43h0A43.63,43.63,0,0,0,6,50.1H6A43.8,43.8,0,0,0,9.1,66.26H43.22l.13-.33A17.26,17.26,0,0,1,37.78,62.23Z"/></g><g id="_Group_3" data-name="&lt;Group&gt;"><path class="cls-1" d="M49.83,7.23A42.85,42.85,0,0,1,89.9,65.3H59.6a18.09,18.09,0,1,0-19.52,0H9.75A42.87,42.87,0,0,1,49.83,7.23m0-1a43.82,43.82,0,0,0-40.73,60H44.21a17.11,17.11,0,1,1,11.25,0h35.1a43.81,43.81,0,0,0-40.73-60"/></g><g id="_Group_4" data-name="&lt;Group&gt;"><polygon class="cls-2" points="16.63 39.52 21.37 46.09 29.08 43.62 24.29 50.15 29.02 56.71 21.33 54.19 16.55 60.72 16.58 52.61 8.89 50.08 16.6 47.61 16.63 39.52"/></g><g id="_Group_5" data-name="&lt;Group&gt;"><path class="cls-1" d="M16.55,61h-.07a.24.24,0,0,1-.16-.23l0-7.93L8.82,50.31a.24.24,0,0,1,0-.45l7.54-2.42,0-7.92a.24.24,0,0,1,.17-.23.24.24,0,0,1,.27.09l4.64,6.44L29,43.39a.24.24,0,0,1,.27.37l-4.69,6.39,4.63,6.42a.24.24,0,0,1-.27.37l-7.53-2.48-4.68,6.39A.24.24,0,0,1,16.55,61ZM9.66,50.09l7,2.3a.24.24,0,0,1,.16.23l0,7.37L21.14,54a.24.24,0,0,1,.27-.09l7,2.3-4.3-6a.24.24,0,0,1,0-.28l4.35-5.94-7,2.25a.24.24,0,0,1-.27-.09l-4.31-6,0,7.36a.24.24,0,0,1-.17.23Zm6.94-2.47h0Z"/></g><g id="_Group_6" data-name="&lt;Group&gt;"><polygon class="cls-2" points="83.03 60.53 78.3 53.95 70.59 56.42 75.38 49.9 70.64 43.33 78.33 45.86 83.11 39.33 83.08 47.43 90.77 49.96 83.06 52.43 83.03 60.53"/></g><g id="_Group_7" data-name="&lt;Group&gt;"><path class="cls-1" d="M83,60.76a.24.24,0,0,1-.19-.1L78.2,54.24l-7.54,2.41a.24.24,0,0,1-.27-.09.24.24,0,0,1,0-.28l4.69-6.39-4.63-6.43a.24.24,0,0,1,.27-.37l7.53,2.48,4.68-6.39a.24.24,0,0,1,.43.14l0,7.92,7.53,2.48a.24.24,0,0,1,0,.45L83.3,52.6l0,7.92a.24.24,0,0,1-.17.23Zm-4.74-7a.24.24,0,0,1,.19.1l4.31,6,0-7.36A.24.24,0,0,1,83,52.2L90,50l-7-2.31a.24.24,0,0,1-.16-.23l0-7.36L78.53,46a.24.24,0,0,1-.27.09l-7-2.3,4.31,6a.24.24,0,0,1,0,.28L71.22,56l7-2.24Z"/></g><g id="_Group_8" data-name="&lt;Group&gt;"><polygon class="cls-2" points="80.73 33.97 72.74 32.67 69.04 39.87 67.81 31.87 59.82 30.57 67.05 26.92 65.81 18.92 71.52 24.67 78.74 21.02 75.03 28.22 80.73 33.97"/></g><g id="_Group_9" data-name="&lt;Group&gt;"><path class="cls-1" d="M69,40.1h0a.24.24,0,0,1-.2-.2l-1.2-7.83-7.82-1.26a.24.24,0,0,1-.07-.45l7.07-3.58L65.57,19a.24.24,0,0,1,.4-.2l5.59,5.63,7.07-3.57a.24.24,0,0,1,.28,0,.24.24,0,0,1,0,.28l-3.63,7L80.9,33.8a.24.24,0,0,1,0,.28.24.24,0,0,1-.25.13l-7.82-1.27-3.63,7A.24.24,0,0,1,69,40.1Zm-8.46-9.65,7.26,1.18a.24.24,0,0,1,.2.2l1.12,7.27,3.37-6.54a.24.24,0,0,1,.25-.13L80,33.61l-5.19-5.23a.24.24,0,0,1,0-.28l3.37-6.54-6.57,3.32a.24.24,0,0,1-.28,0l-5.19-5.23,1.13,7.27a.24.24,0,0,1-.13.25Z"/></g><g id="_Group_10" data-name="&lt;Group&gt;"><polygon class="cls-2" points="60.34 16.81 53.77 21.55 56.23 29.26 49.71 24.47 43.15 29.21 45.67 21.51 39.14 16.73 47.24 16.76 49.77 9.07 52.24 16.79 60.34 16.81"/></g><g id="_Group_11" data-name="&lt;Group&gt;"><path class="cls-1" d="M56.23,29.5a.24.24,0,0,1-.14,0l-6.38-4.68L43.28,29.4a.24.24,0,0,1-.37-.27L45.4,21.6,39,16.93a.24.24,0,0,1,.14-.43h0l7.93,0L49.54,9a.24.24,0,0,1,.23-.16h0A.24.24,0,0,1,50,9l2.42,7.55,7.92,0a.24.24,0,0,1,.14.43L54,21.64l2.41,7.54a.24.24,0,0,1-.23.31Zm-6.52-5.26a.24.24,0,0,1,.14,0l5.93,4.35-2.24-7a.24.24,0,0,1,.09-.27l6-4.31-7.36,0a.24.24,0,0,1-.23-.17l-2.25-7-2.3,7a.24.24,0,0,1-.23.16h0l-7.37,0,5.94,4.35a.24.24,0,0,1,.09.27l-2.3,7,6-4.3A.24.24,0,0,1,49.71,24.24Z"/></g><g id="_Group_12" data-name="&lt;Group&gt;"><polygon class="cls-2" points="33.78 19.11 32.48 27.11 39.68 30.82 31.68 32.04 30.39 40.04 26.74 32.81 18.74 34.04 24.48 28.34 20.84 21.11 28.04 24.82 33.78 19.11"/></g><g id="_Group_13" data-name="&lt;Group&gt;"><path class="cls-1" d="M30.39,40.28a.24.24,0,0,1-.21-.13L26.6,33.07l-7.83,1.21a.24.24,0,0,1-.2-.41l5.62-5.58-3.57-7.07a.24.24,0,0,1,.32-.32l7,3.63,5.63-5.59a.24.24,0,0,1,.4.21L32.75,27l7,3.63a.24.24,0,0,1-.07.45l-7.83,1.2-1.27,7.83a.24.24,0,0,1-.2.2Zm-3.65-7.71a.24.24,0,0,1,.21.13l3.32,6.58L31.45,32a.24.24,0,0,1,.2-.2l7.27-1.11-6.54-3.37a.24.24,0,0,1-.13-.25l1.18-7.27L28.2,25a.24.24,0,0,1-.28,0l-6.54-3.37,3.31,6.57a.24.24,0,0,1,0,.28l-5.22,5.19,7.27-1.12Z"/></g><path class="cls-1" d="M43.94,45.2c.18-2.4,1.4-6.29,6.38-6.29s6,3.56,6,5.76c0,2.49-1.07,4.33-4.1,7.54-2.46,2.58-3,3.24-3.65,4.51h7.75v3.62h-13c.18-3.23,1.69-5.76,5.28-9.58,2.34-2.52,3.8-4.27,3.8-6.14a2.09,2.09,0,0,0-2.14-2.28c-2,0-2.4,2-2.58,3.26Z"/><g id="_Group_14" data-name="&lt;Group&gt;"><path class="cls-1" d="M21.32,70.19v3.56h2.15V70.19H24.9v8.61H23.46V75H21.32v3.79H19.88V70.19Z"/><path class="cls-1" d="M30.2,74.87H28v2.73h2.44v1.19H26.61V70.19h3.72v1.19H28v2.36H30.2Z"/><path class="cls-1" d="M33.06,76.56l-.48,2.24h-1.4l2-8.61h1.68l1.86,8.61H35.34l-.48-2.24Zm1.65-1.07-.37-2c-.12-.56-.24-1.35-.33-2h0c-.09.6-.23,1.43-.33,2l-.4,2Z"/></g><g id="_Group_15" data-name="&lt;Group&gt;"><path class="cls-1" d="M37.93,70.19h1.44v7.46h2.41v1.15H37.93Z"/></g><g id="_Group_16" data-name="&lt;Group&gt;"><path class="cls-1" d="M43.94,71.44H42.32V70.19H47v1.25H45.38v7.36H43.94Z"/><path class="cls-1" d="M49.55,70.19v3.56h2.15V70.19h1.44v8.61H51.69V75H49.55v3.79H48.11V70.19Z"/><path class="cls-1" d="M56.89,77.34a3.2,3.2,0,0,0,1.4.34c.88,0,1.37-.49,1.37-1.2s-.44-1.09-1.18-1.57a3,3,0,0,1-1.7-2.4,2.39,2.39,0,0,1,2.64-2.4,2.94,2.94,0,0,1,1.34.31l-.25,1.17a2.15,2.15,0,0,0-1.11-.29,1.08,1.08,0,0,0-1.21,1c0,.66.36,1,1.29,1.53a2.86,2.86,0,0,1,1.6,2.46,2.52,2.52,0,0,1-2.78,2.53,3.6,3.6,0,0,1-1.64-.36Z"/><path class="cls-1" d="M63.3,71.44H61.68V70.19h4.68v1.25H64.74v7.36H63.3Z"/><path class="cls-1" d="M68.75,76.56l-.48,2.24h-1.4l2-8.61h1.68l1.86,8.61H71l-.48-2.24Zm1.65-1.07-.37-2c-.12-.56-.24-1.35-.33-2h0c-.09.6-.23,1.43-.33,2l-.4,2Z"/></g><g id="_Group_17" data-name="&lt;Group&gt;"><path class="cls-1" d="M73.63,70.31a8,8,0,0,1,1.72-.17,3.26,3.26,0,0,1,2.24.63,2.18,2.18,0,0,1,.68,1.75,2.26,2.26,0,0,1-1.42,2.17v0c.64.22,1,.79,1.15,1.81a12.25,12.25,0,0,0,.55,2.26H77.06a11.52,11.52,0,0,1-.46-2.09c-.17-1.12-.51-1.48-1.23-1.48H75v3.58H73.63ZM75,74.17h.38a1.38,1.38,0,0,0,1.39-1.52c0-.84-.36-1.42-1.29-1.43a1.75,1.75,0,0,0-.48.05Z"/></g><g id="_Group_18" data-name="&lt;Group&gt;"><path class="cls-1" d="M33,81.92a8,8,0,0,1,1.72-.17,3.26,3.26,0,0,1,2.24.63,2.18,2.18,0,0,1,.68,1.75,2.26,2.26,0,0,1-1.42,2.17v0c.64.22,1,.79,1.15,1.81a12.25,12.25,0,0,0,.55,2.26H36.46A11.52,11.52,0,0,1,36,88.31c-.17-1.12-.51-1.48-1.23-1.48h-.32V90.4H33Zm1.42,3.86h.38a1.38,1.38,0,0,0,1.39-1.52c0-.84-.36-1.42-1.29-1.43a1.75,1.75,0,0,0-.48.05Z"/></g><g id="_Group_19" data-name="&lt;Group&gt;"><path class="cls-1" d="M40.37,88.17l-.48,2.24H38.5l2-8.61h1.68L44,90.4H42.65l-.48-2.24ZM42,87.1l-.37-2c-.12-.56-.24-1.35-.34-2h0c-.09.6-.23,1.43-.33,2l-.4,2Z"/></g><g id="_Group_20" data-name="&lt;Group&gt;"><path class="cls-1" d="M46.23,83H44.61V81.8h4.68V83H47.67V90.4H46.23Z"/></g><g id="_Group_21" data-name="&lt;Group&gt;"><path class="cls-1" d="M51.84,81.8V90.4H50.4V81.8Z"/></g><g id="_Group_22" data-name="&lt;Group&gt;"><path class="cls-1" d="M53.56,90.4V81.8h1.31l1.53,3.68c.32.78.78,1.89,1.06,2.72h0c-.08-1.1-.16-2.43-.16-4V81.8h1.26V90.4H57.27l-1.54-3.67a24.68,24.68,0,0,1-1-2.73h0c.07,1,.11,2.21.11,4v2.4Z"/></g><g id="_Group_23" data-name="&lt;Group&gt;"><path class="cls-1" d="M65.06,90.17a5.5,5.5,0,0,1-1.76.31A3.07,3.07,0,0,1,61,89.64a4.81,4.81,0,0,1-1.13-3.46c0-3.23,1.88-4.46,3.65-4.46a3.3,3.3,0,0,1,1.4.25l-.28,1.18a2.2,2.2,0,0,0-1-.21c-1.17,0-2.24.82-2.24,3.24s.94,3.13,1.89,3.13a1.19,1.19,0,0,0,.47-.06V86.84h-1V85.72h2.29Z"/></g></svg>