<svg id="Layer_1" data-name="Layer 1" xmlns="http://www.w3.org/2000/svg" viewBox="0 0 100 100"><defs><style>.cls-1{fill:#231f20;}.cls-2{fill:#fff;}</style></defs><title>HSR-3</title><g id="_Group_" data-name="&lt;Group&gt;"><path class="cls-1" d="M50.33,98.82A49.33,49.33,0,1,1,99.65,49.5,49.38,49.38,0,0,1,50.33,98.82Zm0-98A48.68,48.68,0,1,0,99,49.5,48.74,48.74,0,0,0,50.33.81Z"/></g><g id="_Group_2" data-name="&lt;Group&gt;"><path class="cls-1" d="M50.33,5.67h-.08A43.62,43.62,0,0,0,33.44,9.05h0a43.78,43.78,0,0,0-14.11,9.47h0A43.88,43.88,0,0,0,9.8,32.83h0A43.63,43.63,0,0,0,6.51,49.5h0A43.8,43.8,0,0,0,9.6,65.66H43.72l.13-.33a17.23,17.23,0,0,1-9.31-9.18,17,17,0,0,1-1.35-6.64h0A17,17,0,0,1,34.5,43h0a17.11,17.11,0,0,1,3.72-5.59h0a17.2,17.2,0,0,1,5.51-3.7h0a17,17,0,0,1,6.57-1.32h0a17,17,0,0,1,6.48,1.29L66.93,8.93A43.67,43.67,0,0,0,50.33,5.67Z"/></g><g id="_Group_3" data-name="&lt;Group&gt;"><path class="cls-1" d="M50.33,6.63A42.85,42.85,0,0,1,90.4,64.7H60.1a18.09,18.09,0,1,0-19.52,0H10.25A42.87,42.87,0,0,1,50.33,6.63m0-1a43.82,43.82,0,0,0-40.73,60H44.71a17.11,17.11,0,1,1,11.25,0h35.1a43.81,43.81,0,0,0-40.73-60"/></g><g id="_Group_4" data-name="&lt;Group&gt;"><polygon class="cls-2" points="17.13 38.92 21.87 45.49 29.58 43.02 24.79 49.55 29.52 56.12 21.83 53.59 17.05 60.12 17.08 52.02 9.39 49.48 17.1 47.01 17.13 38.92"/></g><g id="_Group_5" data-name="&lt;Group&gt;"><path class="cls-1" d="M17,60.35H17a.24.24,0,0,1-.16-.23l0-7.93L9.32,49.71a.24.24,0,0,1,0-.45l7.54-2.42,0-7.92a.24.24,0,0,1,.43-.14L22,45.21l7.54-2.42a.24.24,0,0,1,.27.37l-4.69,6.39L29.71,56a.24.24,0,0,1-.27.37l-7.53-2.48-4.68,6.39A.24.24,0,0,1,17,60.35ZM10.16,49.49l7,2.3a.24.24,0,0,1,.16.23l0,7.37,4.35-5.94a.24.24,0,0,1,.27-.09l7,2.3-4.3-6a.24.24,0,0,1,0-.28l4.35-5.94-7,2.25a.24.24,0,0,1-.27-.09l-4.31-6,0,7.36a.24.24,0,0,1-.17.23ZM17.1,47h0Z"/></g><g id="_Group_6" data-name="&lt;Group&gt;"><polygon class="cls-2" points="83.53 59.93 78.8 53.36 71.09 55.82 75.88 49.3 71.14 42.73 78.83 45.26 83.61 38.73 83.58 46.83 91.27 49.36 83.56 51.83 83.53 59.93"/></g><g id="_Group_7" data-name="&lt;Group&gt;"><path class="cls-1" d="M83.54,60.17a.24.24,0,0,1-.19-.1L78.7,53.64l-7.54,2.41A.25.25,0,0,1,70.9,56a.24.24,0,0,1,0-.28l4.69-6.39L71,42.87a.24.24,0,0,1,.27-.37L78.74,45l4.68-6.39a.24.24,0,0,1,.27-.09.24.24,0,0,1,.16.23l0,7.93,7.53,2.48a.24.24,0,0,1,0,.45L83.8,52l0,7.92a.24.24,0,0,1-.17.23Zm-4.74-7a.24.24,0,0,1,.19.1l4.31,6,0-7.36a.24.24,0,0,1,.17-.23l7-2.24-7-2.3a.24.24,0,0,1-.16-.23l0-7.36L79,45.4a.24.24,0,0,1-.27.09l-7-2.3,4.31,6a.24.24,0,0,1,0,.28l-4.35,5.93,7-2.24Z"/></g><g id="_Group_8" data-name="&lt;Group&gt;"><polygon class="cls-2" points="81.23 33.37 73.24 32.07 69.54 39.27 68.31 31.27 60.32 29.98 67.55 26.32 66.31 18.32 72.02 24.07 79.24 20.43 75.53 27.62 81.23 33.37"/></g><g id="_Group_9" data-name="&lt;Group&gt;"><path class="cls-1" d="M69.54,39.51h0a.24.24,0,0,1-.2-.2l-1.2-7.83-7.82-1.26a.24.24,0,0,1-.07-.45l7.07-3.57-1.21-7.83a.24.24,0,0,1,.4-.2l5.59,5.63,7.07-3.57a.24.24,0,0,1,.32.32l-3.63,7L81.4,33.2a.24.24,0,0,1,0,.28.24.24,0,0,1-.25.13l-7.82-1.27-3.63,7A.24.24,0,0,1,69.54,39.51Zm-8.46-9.65L68.34,31a.24.24,0,0,1,.2.2l1.12,7.27L73,32a.24.24,0,0,1,.25-.13L80.55,33l-5.19-5.23a.24.24,0,0,1,0-.28L78.69,21l-6.57,3.32a.24.24,0,0,1-.28,0L66.66,19l1.13,7.27a.24.24,0,0,1-.13.25Z"/></g><g id="_Group_10" data-name="&lt;Group&gt;"><polygon class="cls-2" points="60.84 16.21 54.27 20.95 56.73 28.66 50.21 23.88 43.65 28.61 46.17 20.91 39.64 16.14 47.74 16.16 50.27 8.47 52.74 16.19 60.84 16.21"/></g><g id="_Group_11" data-name="&lt;Group&gt;"><path class="cls-1" d="M56.73,28.9a.24.24,0,0,1-.14,0l-6.38-4.68L43.78,28.8a.24.24,0,0,1-.28,0,.24.24,0,0,1-.09-.27L45.9,21l-6.4-4.68a.24.24,0,0,1,.14-.43h0l7.93,0L50,8.4a.24.24,0,0,1,.23-.16h0a.24.24,0,0,1,.23.17l2.42,7.55,7.92,0a.24.24,0,0,1,.14.43L54.55,21,57,28.59a.24.24,0,0,1-.23.31Zm-6.52-5.26a.24.24,0,0,1,.14,0L56.28,28,54,21a.24.24,0,0,1,.09-.27l6-4.31-7.36,0a.24.24,0,0,1-.23-.17l-2.25-7-2.3,7a.24.24,0,0,1-.23.16h0l-7.37,0,5.94,4.35a.24.24,0,0,1,.09.27l-2.3,7,6-4.3A.24.24,0,0,1,50.21,23.64Z"/></g><g id="_Group_12" data-name="&lt;Group&gt;"><polygon class="cls-2" points="34.28 18.51 32.98 26.51 40.18 30.22 32.18 31.44 30.89 39.44 27.24 32.21 19.24 33.44 24.98 27.74 21.34 20.52 28.54 24.22 34.28 18.51"/></g><g id="_Group_13" data-name="&lt;Group&gt;"><path class="cls-1" d="M30.89,39.68a.24.24,0,0,1-.21-.13L27.1,32.47l-7.83,1.21a.24.24,0,0,1-.2-.41l5.62-5.58-3.57-7.07a.24.24,0,0,1,.32-.32l7,3.63,5.63-5.59a.24.24,0,0,1,.4.21l-1.27,7.83,7,3.63a.24.24,0,0,1-.07.45l-7.83,1.2-1.27,7.83a.24.24,0,0,1-.2.2ZM27.24,32a.24.24,0,0,1,.21.13l3.32,6.58,1.18-7.27a.24.24,0,0,1,.2-.2l7.27-1.11-6.54-3.37a.24.24,0,0,1-.13-.25l1.18-7.27L28.7,24.39a.24.24,0,0,1-.28,0l-6.54-3.37,3.31,6.57a.24.24,0,0,1,0,.28L19.93,33.1,27.2,32Z"/></g><path class="cls-1" d="M44.2,43.95a5.76,5.76,0,0,1,6.05-5.64c3.44,0,5.46,2.14,5.46,5.25A5.15,5.15,0,0,1,53,48.28,5.46,5.46,0,0,1,56.7,53.8c0,2.43-1.19,6.29-6.26,6.29-5.31,0-6.2-4.36-6.47-5.93l3.74-.51c.21,1,.68,3,2.76,3,1.69,0,2.34-1.6,2.34-3,0-1.69-.8-3.74-3.29-3.74a4.36,4.36,0,0,0-1.13.15L48.86,47a2.88,2.88,0,0,0,3-3.18c0-1.33-.71-2.08-1.81-2.08-1.87,0-2.11,2-2.2,2.82Z"/><g id="_Group_14" data-name="&lt;Group&gt;"><path class="cls-1" d="M21.82,69.59v3.56H24V69.59H25.4v8.61H24V74.4H21.82v3.79H20.38V69.59Z"/><path class="cls-1" d="M30.7,74.27H28.55V77H31v1.19H27.12V69.59h3.72v1.19H28.55v2.36H30.7Z"/><path class="cls-1" d="M33.57,76l-.48,2.24h-1.4l2-8.61h1.68l1.86,8.61H35.85L35.36,76Zm1.65-1.07-.37-2c-.12-.56-.24-1.35-.34-2h0c-.09.6-.23,1.43-.33,2l-.4,2Z"/></g><g id="_Group_15" data-name="&lt;Group&gt;"><path class="cls-1" d="M38.43,69.59h1.44V77h2.41v1.15H38.43Z"/></g><g id="_Group_16" data-name="&lt;Group&gt;"><path class="cls-1" d="M44.44,70.84H42.82V69.59H47.5v1.25H45.88v7.36H44.44Z"/><path class="cls-1" d="M50,69.59v3.56h2.15V69.59h1.44v8.61H52.19V74.4H50v3.79H48.61V69.59Z"/><path class="cls-1" d="M57.39,76.74a3.2,3.2,0,0,0,1.4.34c.88,0,1.37-.49,1.37-1.2S59.71,74.8,59,74.31a3,3,0,0,1-1.7-2.4,2.39,2.39,0,0,1,2.64-2.4,2.94,2.94,0,0,1,1.34.31L61,71a2.15,2.15,0,0,0-1.11-.29,1.08,1.08,0,0,0-1.21,1c0,.66.36,1,1.29,1.53a2.86,2.86,0,0,1,1.6,2.46,2.52,2.52,0,0,1-2.78,2.53,3.6,3.6,0,0,1-1.64-.36Z"/><path class="cls-1" d="M63.8,70.84H62.18V69.59h4.68v1.25H65.24v7.36H63.8Z"/><path class="cls-1" d="M69.25,76l-.48,2.24h-1.4l2-8.61h1.68l1.86,8.61H71.53L71,76Zm1.65-1.07-.37-2c-.12-.56-.24-1.35-.33-2h0c-.09.6-.23,1.43-.33,2l-.4,2Z"/></g><g id="_Group_17" data-name="&lt;Group&gt;"><path class="cls-1" d="M74.13,69.71a8,8,0,0,1,1.72-.17,3.26,3.26,0,0,1,2.24.63,2.18,2.18,0,0,1,.68,1.75,2.26,2.26,0,0,1-1.42,2.17v0c.64.22,1,.79,1.15,1.81a12.25,12.25,0,0,0,.55,2.26H77.56a11.52,11.52,0,0,1-.46-2.09c-.17-1.12-.51-1.48-1.23-1.48h-.32v3.58H74.13Zm1.42,3.86h.38a1.38,1.38,0,0,0,1.39-1.52c0-.84-.36-1.42-1.29-1.43a1.75,1.75,0,0,0-.48.05Z"/></g><g id="_Group_18" data-name="&lt;Group&gt;"><path class="cls-1" d="M33.52,81.32a8,8,0,0,1,1.72-.17,3.26,3.26,0,0,1,2.24.63,2.18,2.18,0,0,1,.68,1.75,2.26,2.26,0,0,1-1.42,2.17v0c.64.22,1,.79,1.15,1.81a12.25,12.25,0,0,0,.55,2.26H37a11.52,11.52,0,0,1-.46-2.09c-.17-1.12-.51-1.48-1.23-1.48h-.32V89.8H33.52Zm1.42,3.86h.38a1.38,1.38,0,0,0,1.39-1.52c0-.84-.36-1.42-1.29-1.43a1.75,1.75,0,0,0-.48.05Z"/></g><g id="_Group_19" data-name="&lt;Group&gt;"><path class="cls-1" d="M40.88,87.57l-.48,2.24H39l2-8.61h1.68l1.86,8.61H43.16l-.48-2.24Zm1.65-1.07-.37-2c-.12-.56-.24-1.35-.33-2h0c-.09.6-.23,1.43-.33,2l-.4,2Z"/></g><g id="_Group_20" data-name="&lt;Group&gt;"><path class="cls-1" d="M46.73,82.45H45.11V81.2h4.68v1.25H48.17V89.8H46.73Z"/></g><g id="_Group_21" data-name="&lt;Group&gt;"><path class="cls-1" d="M52.34,81.2V89.8H50.9V81.2Z"/></g><g id="_Group_22" data-name="&lt;Group&gt;"><path class="cls-1" d="M54.06,89.8V81.2h1.31l1.53,3.68c.32.78.78,1.89,1.06,2.72h0c-.08-1.1-.16-2.43-.16-4V81.2h1.26V89.8H57.77l-1.54-3.67a24.68,24.68,0,0,1-1-2.73h0c.07,1,.11,2.21.11,4v2.4Z"/></g><g id="_Group_23" data-name="&lt;Group&gt;"><path class="cls-1" d="M65.56,89.57a5.5,5.5,0,0,1-1.76.31A3.07,3.07,0,0,1,61.51,89a4.81,4.81,0,0,1-1.13-3.46c0-3.23,1.88-4.46,3.65-4.46a3.3,3.3,0,0,1,1.4.25l-.28,1.18a2.2,2.2,0,0,0-1-.21c-1.17,0-2.24.82-2.24,3.24s.94,3.13,1.89,3.13a1.19,1.19,0,0,0,.47-.06V86.24h-1V85.12h2.29Z"/></g></svg>