<svg width="22" height="21" viewBox="0 0 22 21" fill="none" xmlns="http://www.w3.org/2000/svg">
<path d="M19.8957 16.9939C17.341 16.0671 14.2647 15.575 11.0004 15.575C7.736 15.575 4.65968 16.0671 2.10497 16.9939C1.70048 17.1411 1.49113 17.5902 1.6366 17.996C1.78208 18.4055 2.22562 18.6139 2.62656 18.4702C4.98257 17.6153 7.95603 17.1447 11.0003 17.1447C14.0446 17.1447 17.0181 17.6153 19.3741 18.4702C19.4593 18.5025 19.548 18.5169 19.6367 18.5169C19.956 18.5169 20.2541 18.3157 20.3676 17.996C20.5131 17.5866 20.3037 17.1375 19.8992 16.9939L19.8957 16.9939Z" fill="black"/>
<path d="M11.0004 14.5009C12.3594 14.5009 13.6827 14.5871 14.9567 14.7488C15.6805 13.8544 16.1134 12.7157 16.1134 11.4692C16.1134 8.60982 13.8248 6.28955 10.997 6.28955C8.17247 6.28955 5.88049 8.60637 5.88049 11.4692C5.88049 12.712 6.31336 13.8543 7.03722 14.7488C8.31103 14.5871 9.63803 14.5009 10.9935 14.5009H11.0004Z" fill="black"/>
<path d="M17.5077 19.0199C15.5882 18.4739 13.3387 18.1865 11.0004 18.1865C8.66209 18.1865 6.40895 18.4739 4.49303 19.0199C4.08143 19.1384 3.84016 19.5694 3.95724 19.9861C4.07433 20.4028 4.50011 20.647 4.9117 20.5285C6.69646 20.022 8.80054 19.7526 11.0003 19.7526C13.2001 19.7526 15.3043 20.022 17.0889 20.5285C17.1599 20.5501 17.2309 20.5573 17.2983 20.5573C17.6354 20.5573 17.9476 20.331 18.0434 19.9861C18.1605 19.5694 17.9193 19.1348 17.5077 19.0199Z" fill="black"/>
<path d="M10.1629 0.847784V3.71059C10.1629 3.95126 10.2623 4.17754 10.4397 4.3392C10.6171 4.50086 10.8477 4.57987 11.089 4.55472C11.5112 4.51162 11.8412 4.11651 11.8412 3.65673V0.847715C11.8412 0.617826 11.7525 0.402306 11.5893 0.244257C11.4261 0.0826175 11.2132 0 10.9861 0C10.5319 0.00718403 10.1629 0.388006 10.1629 0.847784Z" fill="black"/>
<path d="M21.1624 10.2875H18.3345C18.0968 10.2875 17.8733 10.3881 17.7136 10.5677C17.5539 10.7473 17.4758 10.9808 17.5007 11.2251C17.5433 11.6525 17.9336 11.9866 18.3877 11.9866H21.1625C21.3896 11.9866 21.6025 11.8968 21.7586 11.7351C21.9183 11.5699 22.0034 11.3544 21.9999 11.1245C21.9928 10.6647 21.6167 10.2911 21.1625 10.2911L21.1624 10.2875Z" fill="black"/>
<path d="M0.89151 11.983H3.66627C3.89335 11.983 4.10624 11.8932 4.26236 11.728C4.41849 11.5627 4.50719 11.3472 4.50364 11.1173C4.49655 10.6576 4.12044 10.284 3.66627 10.284H0.838372C0.600636 10.284 0.377116 10.3846 0.217429 10.5642C0.057743 10.7438 -0.0203063 10.9773 0.00453686 11.2215C0.0471154 11.649 0.437339 11.983 0.89151 11.983Z" fill="black"/>
<path d="M15.5918 5.28398C15.425 5.45281 15.3363 5.68629 15.347 5.92696C15.3576 6.16763 15.4676 6.38674 15.6557 6.54478C15.9821 6.81778 16.4931 6.77467 16.8124 6.4478L18.2743 4.96789C18.4339 4.80625 18.5227 4.59073 18.5191 4.36084C18.5191 4.13096 18.4268 3.91543 18.2636 3.75739C18.104 3.59934 17.8911 3.52032 17.6817 3.52032C17.4724 3.52032 17.2524 3.60294 17.0892 3.76817L15.5918 5.28398Z" fill="black"/>
<path d="M3.76203 5.00726L5.2239 6.48717C5.38356 6.64881 5.59291 6.73501 5.81645 6.73501H5.82355C6.05063 6.73501 6.25998 6.64162 6.41965 6.47639C6.73543 6.14592 6.73189 5.61072 6.409 5.28743L4.91165 3.77159C4.75553 3.61354 4.53909 3.52374 4.31909 3.52374H4.27651C4.03878 3.53452 3.82234 3.64587 3.66622 3.83625C3.39656 4.16672 3.43915 4.68397 3.76203 5.00726Z" fill="black"/>
</svg>
