<svg xmlns="http://www.w3.org/2000/svg" version="1.1" viewBox="0 0 32.0 32.0">
  <metadata>
    <rdf:RDF xmlns:rdf="http://www.w3.org/1999/02/22-rdf-syntax-ns#"
             xmlns:dc="http://www.purl.org/dc/elements/1.1/">
      <rdf:Description>
        <dc:creator>Created by Rumana Islam from Noun Project</dc:creator>
        <dc:rights>Creative Commons Attribution 3.0</dc:rights>
      </rdf:Description>
    </rdf:RDF>
  </metadata>
<path d="M18.523,11.411L17.118,11.411L17.118,10.008C17.118,9.39 16.617,8.89 16,8.89C15.383,8.89 14.882,9.39 14.882,10.008L14.882,11.413L13.477,11.411C12.861,11.411 12.359,11.912 12.359,12.529C12.359,13.148 12.861,13.647 13.477,13.647L14.882,13.647L14.882,15.048C14.882,15.665 15.383,16.166 16,16.166C16.617,16.166 17.118,15.665 17.118,15.048L17.118,13.647L18.523,13.647C19.139,13.647 19.641,13.148 19.641,12.529C19.641,11.912 19.139,11.411 18.523,11.411L18.523,11.411Z"/><path d="M16,0.227C10.897,0.227 3.706,4.145 3.706,12.852C3.706,21.349 14.793,31.091 15.268,31.501L15.266,31.501C15.687,31.865 16.313,31.865 16.734,31.501C17.207,31.089 28.294,21.367 28.294,12.87C28.294,4.65 21.957,0.226 16,0.226L16,0.227ZM16,29.145C13.566,26.86 5.942,19.188 5.942,12.87C5.942,5.714 11.823,2.48 16,2.48C20.025,2.48 26.057,5.244 26.057,12.87C26.057,19.18 18.428,26.859 16,29.145Z" /><path d="M16,5.379C14.102,5.379 12.282,6.134 10.941,7.475C9.599,8.817 8.844,10.637 8.844,12.534C8.844,14.431 9.599,16.252 10.941,17.593C12.282,18.935 14.103,19.69 16,19.69C17.897,19.69 19.717,18.935 21.059,17.593C22.4,16.252 23.155,14.431 23.155,12.534C23.155,10.637 22.4,8.817 21.059,7.475C19.717,6.134 17.897,5.379 16,5.379ZM16,17.454C14.01,17.454 12.216,16.256 11.454,14.418C10.692,12.578 11.113,10.463 12.521,9.056C13.928,7.648 16.043,7.227 17.883,7.989C19.721,8.751 20.919,10.545 20.919,12.535C20.914,15.248 18.713,17.445 16,17.445L16,17.454Z" />
</svg>