<svg xmlns="http://www.w3.org/2000/svg" version="1.1" viewBox="0 0 32.0 32.0">
  <metadata>
    <rdf:RDF xmlns:rdf="http://www.w3.org/1999/02/22-rdf-syntax-ns#"
             xmlns:dc="http://www.purl.org/dc/elements/1.1/">
      <rdf:Description>
        <dc:creator>Created by Fahmi Hidayat from Noun Project</dc:creator>
        <dc:rights>Creative Commons Attribution 3.0</dc:rights>
      </rdf:Description>
    </rdf:RDF>
  </metadata>
 <path d="M18.927,31.344L2.28,31.344C1.198,31.344 0.322,30.428 0.322,29.298L0.322,23.502C0.322,22.977 0.51,22.499 0.82,22.137C0.501,21.763 0.322,21.278 0.322,20.773L0.322,16.681C0.322,16.157 0.51,15.68 0.82,15.318C0.51,14.955 0.322,14.478 0.322,13.954L0.322,9.181C0.322,8.536 0.612,7.93 1.105,7.544L4.239,5.089L4.239,4.747C3.878,4.747 3.586,4.442 3.586,4.066L3.586,1.337C3.586,0.961 3.878,0.656 4.239,0.656L9.462,0.656C9.821,0.656 10.114,0.961 10.114,1.337L10.114,4.066C10.114,4.442 9.821,4.747 9.462,4.747L9.462,5.089L12.595,7.544C12.817,7.718 12.998,7.936 13.129,8.182C13.558,8.245 14.244,8.444 14.959,9.051C15.112,8.895 15.301,8.724 15.533,8.553C15.42,8.158 15.289,7.586 15.248,6.954C15.192,6.117 15.299,5.185 15.757,4.395C15.873,4.194 16.079,4.07 16.303,4.066C16.303,4.066 17.521,4.045 18.714,4.621C18.907,3.508 19.428,1.85 20.828,0.786C21.042,0.624 21.329,0.612 21.554,0.757C21.554,0.757 23.19,1.772 23.685,4.281C24.294,3.836 25.187,3.422 26.416,3.384C26.62,3.378 26.816,3.473 26.944,3.639C26.944,3.639 27.969,4.906 27.827,7.635C28.553,7.523 29.593,7.48 30.577,7.858C30.838,7.958 31.009,8.222 31.004,8.512C31.004,8.512 30.992,9.255 30.766,10.198C30.668,10.605 30.364,11.315 30.157,11.774C31.053,12.556 31.657,13.885 31.657,15.884C31.657,17.753 31.257,19.827 30.505,21.557C30.269,21.324 30.014,21.099 29.745,20.882C27.154,18.786 22.988,17.364 18.275,17.364C17.302,17.364 16.353,17.424 15.435,17.539C15.37,16.979 15.337,16.423 15.337,15.884C15.337,12.568 16.999,11.095 18.896,10.906C20.179,10.778 21.617,11.273 22.783,12.262C22.657,11.239 22.306,9.792 21.36,8.591C21.131,8.3 21.172,7.87 21.45,7.631C21.729,7.392 22.14,7.434 22.369,7.724C23.579,9.261 23.975,11.135 24.1,12.359C25.283,11.305 26.773,10.774 28.096,10.906C28.413,10.938 28.723,11.004 29.019,11.109C29.195,10.719 29.423,10.186 29.499,9.867C29.578,9.535 29.626,9.234 29.656,8.998C28.456,8.736 27.293,9.145 27.293,9.145C27.078,9.22 26.841,9.173 26.668,9.021C26.494,8.869 26.408,8.633 26.441,8.399C26.712,6.465 26.318,5.279 26.08,4.776C24.418,4.977 23.731,6.12 23.731,6.12C23.581,6.383 23.281,6.51 22.997,6.428C22.713,6.346 22.517,6.076 22.517,5.769C22.519,3.837 21.701,2.716 21.217,2.222C19.857,3.599 19.906,5.759 19.906,5.759C19.91,6.026 19.765,6.272 19.534,6.387C19.303,6.501 19.028,6.465 18.833,6.292C18.131,5.676 17.219,5.5 16.711,5.45C16.545,5.906 16.52,6.406 16.55,6.861C16.612,7.801 16.918,8.577 16.918,8.577C17.046,8.896 16.924,9.263 16.638,9.433C15.884,9.879 15.569,10.394 15.569,10.394C15.463,10.58 15.278,10.701 15.071,10.722C14.866,10.742 14.662,10.659 14.524,10.498C14.43,10.388 14.334,10.29 14.24,10.203C13.929,9.915 13.627,9.749 13.378,9.653L13.378,13.954C13.378,14.479 13.19,14.955 12.879,15.319C13.19,15.681 13.378,16.157 13.378,16.682L13.378,17.895C12.932,17.996 12.496,18.109 12.072,18.234L12.072,16.682C12.072,16.306 11.78,16 11.42,16L2.28,16C1.919,16 1.628,16.306 1.628,16.682L1.628,20.773C1.628,20.955 1.696,21.128 1.819,21.256C1.941,21.383 2.108,21.456 2.28,21.456L8.28,21.456C9.098,20.896 10.044,20.405 11.093,19.999L11.093,24.184C11.093,24.937 11.678,25.548 12.399,25.548C12.745,25.548 13.077,25.404 13.322,25.148C13.567,24.892 13.704,24.546 13.704,24.184L13.704,19.216C14.738,18.987 15.831,18.834 16.968,18.766L16.968,24.184C16.968,24.937 17.553,25.548 18.274,25.548C18.995,25.548 19.579,24.937 19.579,24.184L19.579,18.766C20.716,18.834 21.811,18.987 22.844,19.216L22.844,24.184C22.844,24.546 22.981,24.892 23.227,25.148C23.472,25.404 23.803,25.548 24.15,25.548C24.871,25.548 25.455,24.937 25.455,24.184L25.455,19.999C26.808,20.523 27.993,21.19 28.946,21.96C30.672,23.354 31.657,25.094 31.657,26.953C31.657,27.943 31.412,28.718 30.886,29.334C30.391,29.912 29.626,30.358 28.492,30.665C26.599,31.177 23.571,31.33 18.961,31.343C18.95,31.344 18.939,31.344 18.927,31.344L18.927,31.344ZM6.673,22.819L2.28,22.819C1.919,22.819 1.628,23.125 1.628,23.502L1.628,29.298C1.628,29.675 1.919,29.979 2.28,29.979L6.417,29.979C6.115,29.788 5.867,29.572 5.663,29.334C5.136,28.717 4.891,27.942 4.891,26.953C4.891,25.458 5.529,24.041 6.673,22.819L6.673,22.819ZM5.545,4.747L5.545,5.429C5.545,5.644 5.448,5.846 5.283,5.975L1.889,8.635C1.725,8.764 1.628,8.966 1.628,9.181L1.628,13.954C1.628,14.331 1.919,14.635 2.28,14.635L11.42,14.635C11.78,14.635 12.073,14.331 12.073,13.954L12.073,9.181C12.073,8.966 11.976,8.764 11.812,8.635L8.416,5.975C8.252,5.846 8.156,5.644 8.156,5.429L8.156,4.747L5.545,4.747Z "/>
</svg>