<svg xmlns="http://www.w3.org/2000/svg" version="1.1" viewBox="0 0 32.0 32.0">
  <metadata>
    <rdf:RDF xmlns:rdf="http://www.w3.org/1999/02/22-rdf-syntax-ns#"
             xmlns:dc="http://www.purl.org/dc/elements/1.1/">
      <rdf:Description>
        <dc:creator>Created by Humam from Noun Project</dc:creator>
        <dc:rights>Creative Commons Attribution 3.0</dc:rights>
      </rdf:Description>
    </rdf:RDF>
  </metadata>
<path d="M27.997,0.001L22.5,0.001C22.229,0.001 22.015,0.214 22.015,0.487C22.015,1.291 21.643,1.942 20.837,1.942C20.033,1.942 19.684,1.293 19.684,0.487C19.684,0.215 19.471,0.001 19.199,0.001L12.801,0.001C12.53,0.001 12.316,0.214 12.316,0.487C12.316,1.291 11.945,1.942 11.139,1.942C10.334,1.942 9.985,1.293 9.985,0.487C9.985,0.215 9.773,0.001 9.5,0.001L4,-0C3.729,-0 3.515,0.213 3.515,0.485L3.515,31.513C3.515,31.785 3.727,31.999 4,31.999L27.992,32C28.263,32 28.477,31.787 28.477,31.515L28.483,0.485C28.483,0.214 28.27,0 27.997,0L27.997,0.001ZM27.141,30.657L4.841,30.657L4.841,1.362L8.768,1.362C8.991,2.468 9.97,3.301 11.143,3.301C12.315,3.301 13.296,2.467 13.518,1.362L18.463,1.362C18.687,2.468 19.666,3.301 20.839,3.301C22.011,3.301 22.992,2.467 23.214,1.362L27.141,1.362L27.141,30.657ZM14.227,6.934C14.421,7.127 14.421,7.429 14.227,7.622L10.795,11.054C10.708,11.141 10.583,11.2 10.456,11.2C10.33,11.2 10.203,11.151 10.116,11.054L8.06,8.998C7.866,8.804 7.866,8.503 8.06,8.309C8.254,8.116 8.555,8.116 8.749,8.309L10.465,10.026L13.548,6.943C13.742,6.75 14.043,6.75 14.237,6.943L14.227,6.934ZM15.827,8.931L23.584,8.931C23.855,8.931 24.069,9.144 24.069,9.417C24.069,9.688 23.856,9.902 23.584,9.902L15.827,9.902C15.555,9.902 15.341,9.689 15.341,9.417C15.341,9.145 15.554,8.931 15.827,8.931ZM14.227,14.205C14.421,14.399 14.421,14.7 14.227,14.894L10.795,18.326C10.708,18.413 10.583,18.471 10.456,18.471C10.33,18.471 10.203,18.422 10.116,18.326L8.06,16.269C7.866,16.076 7.866,15.774 8.06,15.581C8.254,15.387 8.555,15.387 8.749,15.581L10.465,17.297L13.548,14.215C13.742,14.021 14.043,14.021 14.237,14.215L14.227,14.205ZM24.069,16.688C24.069,16.959 23.856,17.173 23.583,17.173L15.826,17.173C15.555,17.173 15.341,16.961 15.341,16.688C15.341,16.417 15.554,16.203 15.826,16.203L23.583,16.203C23.855,16.203 24.069,16.415 24.069,16.688ZM14.227,21.478C14.421,21.672 14.421,21.973 14.227,22.167L10.795,25.599C10.708,25.686 10.583,25.744 10.456,25.744C10.33,25.744 10.203,25.695 10.116,25.599L8.06,23.542C7.866,23.349 7.866,23.047 8.06,22.854C8.254,22.66 8.555,22.66 8.749,22.854L10.465,24.57L13.548,21.488C13.742,21.294 14.043,21.294 14.237,21.488L14.227,21.478ZM24.069,23.96C24.069,24.231 23.856,24.445 23.583,24.445L15.826,24.445C15.555,24.445 15.341,24.232 15.341,23.96C15.341,23.688 15.554,23.474 15.826,23.474L23.583,23.474C23.855,23.474 24.069,23.687 24.069,23.96Z" /></svg>