<svg xmlns="http://www.w3.org/2000/svg" version="1.1" viewBox="0 0 32.0 32.0">
  <metadata>
    <rdf:RDF xmlns:rdf="http://www.w3.org/1999/02/22-rdf-syntax-ns#"
             xmlns:dc="http://www.purl.org/dc/elements/1.1/">
      <rdf:Description>
        <dc:creator>Created by Meyda from Noun Project</dc:creator>
        <dc:rights>Creative Commons Attribution 3.0</dc:rights>
      </rdf:Description>
    </rdf:RDF>
  </metadata>
<g transform="matrix(1,0,0,1,-24,-24)"><g transform="matrix(1.01141,0,0,1.01141,9.26947,9.26947)"><path d="M64.001,23.84C41.855,23.84 23.839,41.855 23.839,63.998C23.839,86.144 41.856,104.16 64.001,104.16C86.146,104.16 104.161,86.143 104.161,63.998C104.161,41.854 86.146,23.84 64.001,23.84ZM64.001,26.84C84.491,26.84 101.161,43.509 101.161,63.998C101.161,73.242 97.761,81.701 92.156,88.21C87.068,84.023 77.502,81.772 74.071,81.073L74.071,74.586C74.071,74.41 74.035,74.245 73.98,74.089C76.636,71.27 78.685,67.535 79.952,63.737C81.973,63.119 83.407,60.42 83.407,56.98C83.407,54.501 82.656,52.348 81.406,51.135C80.301,41.698 73.531,35.64 64.001,35.64C54.47,35.64 47.699,41.699 46.594,51.135C45.344,52.348 44.593,54.501 44.593,56.98C44.593,60.419 46.027,63.119 48.048,63.737C49.316,67.534 51.365,71.267 54.021,74.086C53.965,74.243 53.929,74.41 53.929,74.586L53.929,81.073C50.498,81.772 40.932,84.023 35.845,88.21C30.24,81.701 26.84,73.241 26.84,63.998C26.839,43.509 43.51,26.84 64.001,26.84ZM50.612,61.898C50.42,61.252 49.828,60.826 49.175,60.826C49.09,60.826 49.003,60.833 48.915,60.848C48.901,60.85 48.888,60.853 48.874,60.856C48.488,60.702 47.592,59.34 47.592,56.98C47.592,54.905 48.322,53.497 48.84,53.159C49.226,52.908 49.475,52.494 49.516,52.035C50.251,43.773 55.801,38.64 64,38.64C72.198,38.64 77.748,43.773 78.482,52.035C78.523,52.494 78.772,52.908 79.158,53.159C79.676,53.497 80.406,54.905 80.406,56.98C80.406,59.342 79.509,60.704 79.123,60.856C79.106,60.853 79.092,60.85 79.083,60.848C78.328,60.716 77.604,61.169 77.387,61.898C74.929,70.16 69.424,75.93 64.001,75.93C58.579,75.93 53.073,70.159 50.612,61.898ZM37.892,90.412C43.416,85.962 55.556,83.813 55.685,83.79C56.404,83.666 56.929,83.042 56.929,82.312L56.929,76.592C59.042,78.044 61.414,78.929 64.001,78.929C66.587,78.929 68.959,78.045 71.071,76.594L71.071,82.312C71.071,83.041 71.596,83.666 72.316,83.791C72.445,83.813 84.581,85.955 90.109,90.412C83.393,97.052 74.169,101.16 64.001,101.16C53.833,101.16 44.608,97.052 37.892,90.412Z" /></g><g transform="matrix(1.01141,0,0,1.01141,9.26947,9.26947)"><path d="M64,15.553C37.286,15.553 15.553,37.286 15.553,64C15.553,90.714 37.286,112.447 64,112.447C90.714,112.447 112.447,90.714 112.447,64C112.447,37.286 90.714,15.553 64,15.553ZM64,109.447C38.94,109.447 18.553,89.059 18.553,64C18.553,38.941 38.94,18.553 64,18.553C89.06,18.553 109.447,38.94 109.447,64C109.447,89.06 89.06,109.447 64,109.447Z" /></g></g></svg>