<svg xmlns="http://www.w3.org/2000/svg" version="1.1" viewBox="0 0 32.0 32.0">
  <metadata>
    <rdf:RDF xmlns:rdf="http://www.w3.org/1999/02/22-rdf-syntax-ns#"
             xmlns:dc="http://www.purl.org/dc/elements/1.1/">
      <rdf:Description>
        <dc:creator>Created by With ong today from Noun Project</dc:creator>
        <dc:rights>Creative Commons Attribution 3.0</dc:rights>
      </rdf:Description>
    </rdf:RDF>
  </metadata>
<path d="M16,5.349C17.596,5.349 19.05,5.99 20.098,7.038C21.146,8.086 21.787,9.525 21.787,11.136C21.787,12.731 21.146,14.17 20.098,15.218C19.05,16.266 17.596,16.922 16,16.922C14.405,16.922 12.951,16.266 11.903,15.218C10.871,14.17 10.213,12.731 10.213,11.136C10.213,9.525 10.871,8.086 11.903,7.038C12.951,5.99 14.405,5.349 16,5.349ZM16,0C20.427,0 24.415,1.798 27.323,4.692C30.217,7.585 32,11.59 32,16C32,20.426 30.217,24.414 27.323,27.323C24.727,29.904 21.255,31.609 17.408,31.937L17.298,31.953L17.205,31.953L17.111,31.968L17.001,31.968L16.86,31.984L16.626,31.984L16.61,31.999L15.406,31.999L15.391,31.984L15.14,31.984L14.999,31.968L14.906,31.968L14.796,31.953L14.702,31.953L14.609,31.937C10.745,31.609 7.273,29.904 4.692,27.323C1.799,24.414 0.001,20.426 0.001,16C0.001,11.589 1.799,7.585 4.692,4.692C7.586,1.798 11.59,0 16,0ZM26.542,5.474C23.836,2.768 20.114,1.11 16,1.11C11.887,1.11 8.165,2.768 5.475,5.474C2.769,8.164 1.111,11.886 1.111,16C1.111,19.628 2.409,22.96 4.567,25.54L4.567,24.915C4.567,23.225 5.256,21.693 6.366,20.583C7.476,19.472 9.009,18.784 10.682,18.784L21.318,18.784C23.007,18.784 24.54,19.472 25.65,20.583C26.745,21.693 27.449,23.225 27.449,24.915L27.449,25.54C29.607,22.96 30.905,19.628 30.905,16C30.905,11.886 29.232,8.164 26.542,5.474ZM5.662,26.729C8.211,29.184 11.636,30.748 15.421,30.89L15.624,30.89L15.812,30.905L16.188,30.905L16.376,30.89L16.594,30.89C20.364,30.748 23.789,29.185 26.338,26.729L26.338,24.915C26.338,23.523 25.775,22.272 24.868,21.365C23.945,20.457 22.694,19.894 21.318,19.894L10.682,19.894C9.306,19.894 8.055,20.457 7.148,21.365C6.225,22.272 5.662,23.523 5.662,24.915L5.662,26.729ZM16.407,30.89L16.563,30.89M19.316,7.82C18.472,6.976 17.298,6.444 16,6.444C14.702,6.444 13.545,6.976 12.684,7.82C11.84,8.665 11.324,9.838 11.324,11.136C11.324,12.419 11.84,13.592 12.684,14.436C13.545,15.296 14.702,15.813 16,15.813C17.298,15.813 18.472,15.296 19.316,14.436C20.161,13.592 20.693,12.418 20.693,11.136C20.692,9.837 20.161,8.665 19.316,7.82Z" /></svg>