<svg xmlns="http://www.w3.org/2000/svg" version="1.1" viewBox="0 0 32.0 32.0">
  <metadata>
    <rdf:RDF xmlns:rdf="http://www.w3.org/1999/02/22-rdf-syntax-ns#"
             xmlns:dc="http://www.purl.org/dc/elements/1.1/">
      <rdf:Description>
        <dc:creator>Created by Soetarman Atmodjo from Noun Project</dc:creator>
        <dc:rights>Creative Commons Attribution 3.0</dc:rights>
      </rdf:Description>
    </rdf:RDF>
  </metadata>
  <g transform="matrix(0.340386,0,0,0.340386,-1.01939,-1.01762)"><path d="M60.988,3L88.965,3C91.176,3 93.188,3.906 94.641,5.359C96.098,6.816 97,8.824 97,11.035L97,39.012C97,41.219 96.094,43.227 94.641,44.684C93.184,46.145 91.176,47.051 88.965,47.051L52.953,47.051L52.953,11.039C52.953,8.828 53.859,6.817 55.312,5.363C56.777,3.906 58.785,3.004 60.988,3.004L60.988,3ZM75.16,66.578L73.746,65.164L76.574,62.336L89.211,74.977L76.574,87.614L73.746,84.786L83.554,74.977L75.156,66.579L75.16,66.578ZM62.152,66.57L60.746,65.156L63.574,62.344C67.773,66.562 71.992,70.765 76.199,74.981L63.566,87.614L60.738,84.785L70.55,74.973L62.152,66.57ZM39.007,97L11.03,97C8.819,97 6.807,96.094 5.354,94.641C3.897,93.184 2.995,91.176 2.995,88.965L2.995,60.988C2.995,58.781 3.901,56.773 5.354,55.316C6.811,53.855 8.819,52.949 11.03,52.949L47.042,52.949L47.042,88.961C47.042,91.172 46.136,93.184 44.683,94.637C43.218,96.094 41.21,96.996 39.007,96.996L39.007,97ZM11.03,93L39.007,93C40.12,93 41.128,92.547 41.863,91.817C42.589,91.082 43.046,90.07 43.046,88.965L43.046,56.953L11.034,56.953C9.925,56.953 8.917,57.41 8.186,58.14C7.456,58.867 6.999,59.879 6.999,60.992L6.999,88.969C6.999,90.078 7.456,91.086 8.186,91.817C8.917,92.547 9.925,93.004 11.034,93.004L11.03,93ZM60.983,93L88.96,93C90.069,93 91.077,92.543 91.808,91.813C92.538,91.082 92.995,90.074 92.995,88.965L92.995,60.988C92.995,59.875 92.542,58.867 91.812,58.132C91.077,57.406 90.066,56.949 88.96,56.949L56.948,56.949L56.948,88.961C56.948,90.07 57.405,91.078 58.136,91.809C58.862,92.539 59.874,92.996 60.987,92.996L60.983,93ZM88.96,97L60.983,97C58.776,97 56.768,96.094 55.311,94.641C53.85,93.184 52.944,91.176 52.944,88.965L52.944,52.953L88.956,52.953C91.167,52.953 93.179,53.859 94.632,55.312C96.089,56.777 96.991,58.785 96.991,60.988L96.991,88.965C96.991,91.176 96.085,93.188 94.632,94.641C93.175,96.098 91.167,97 88.956,97L88.96,97ZM39.007,7L11.03,7C9.921,7 8.913,7.457 8.182,8.188C7.452,8.918 6.995,9.926 6.995,11.035L6.995,39.012C6.995,40.126 7.448,41.133 8.178,41.868C8.913,42.594 9.925,43.051 11.03,43.051L43.042,43.051L43.042,11.039C43.042,9.93 42.585,8.922 41.855,8.192C41.128,7.461 40.116,7.004 39.003,7.004L39.007,7ZM11.03,3L39.007,3C41.214,3 43.222,3.906 44.679,5.36C46.14,6.817 47.046,8.824 47.046,11.035L47.046,47.047L11.034,47.047C8.823,47.047 6.811,46.141 5.358,44.688C3.901,43.223 2.999,41.215 2.999,39.012L2.999,11.035C2.999,8.824 3.905,6.812 5.358,5.359C6.815,3.902 8.823,3 11.034,3L11.03,3ZM88.956,7L60.979,7C59.866,7 58.858,7.453 58.124,8.184C57.397,8.918 56.94,9.93 56.94,11.035L56.94,43.047L88.952,43.047C90.061,43.047 91.069,42.59 91.8,41.86C92.53,41.133 92.987,40.122 92.987,39.008L92.987,11.031C92.987,9.922 92.53,8.914 91.8,8.184C91.069,7.453 90.061,6.996 88.952,6.996L88.956,7Z" /></g></svg>